<svg width="161" height="24" viewBox="0 0 161 24" fill="none" xmlns="http://www.w3.org/2000/svg">
<path d="M14.6885 10.0469C13.4482 10.0469 12.3057 9.8418 11.2607 9.43164C9.86426 8.88477 9.16602 8.09375 9.16602 7.05859C9.16602 5.39844 10.9824 4.0166 14.6152 2.91309C17.4375 2.06348 19.9717 1.63867 22.2178 1.63867C24.4639 1.63867 25.5869 2.37598 25.5869 3.85059C25.5869 4.6709 24.7764 5.46191 23.1553 6.22363C21.7295 6.89746 20.5381 7.23438 19.5811 7.23438C18.9854 7.23438 18.6875 6.98535 18.6875 6.4873C18.6875 6.1748 18.9365 5.85254 19.4346 5.52051C19.8936 5.20801 20.2891 5.05176 20.6211 5.05176C20.8164 5.05176 20.9141 5.12012 20.9141 5.25684C20.9141 5.31543 20.7822 5.41309 20.5186 5.5498C20.2158 5.70605 20.0352 5.81836 19.9766 5.88672C20.0645 5.96484 20.1865 6.00391 20.3428 6.00391C20.8506 6.00391 21.7002 5.71582 22.8916 5.13965C24.1807 4.51465 24.8252 3.99219 24.8252 3.57227C24.8252 3.18164 24.1172 2.98633 22.7012 2.98633C21.1191 2.98633 19.2393 3.26465 17.0615 3.82129C15.6162 4.20215 14.2832 4.6416 13.0625 5.13965C11.0898 5.95996 10.1035 6.72656 10.1035 7.43945C10.1035 8.29883 11.4658 8.9043 14.1904 9.25586C15.7529 9.46094 17.4912 9.56348 19.4053 9.56348C19.7959 9.56348 19.9912 9.70996 19.9912 10.0029C19.9912 10.54 19.3613 10.8379 18.1016 10.8965C14.2637 11.0723 10.6064 11.9658 7.12988 13.5771C3.56543 15.2275 1.7832 16.8779 1.7832 18.5283C1.7832 20.1396 3.16504 20.9453 5.92871 20.9453C7.5791 20.9453 9.18066 20.5742 10.7334 19.832C11.7783 19.334 12.8135 18.6504 13.8389 17.7812C14.7178 17.0391 15.167 16.668 15.1865 16.668C15.4111 16.668 15.5234 16.9414 15.5234 17.4883C15.5234 18.3965 14.5176 19.4365 12.5059 20.6084C10.4941 21.7803 8.46289 22.3662 6.41211 22.3662C2.67188 22.3662 0.801758 20.877 0.801758 17.8984C0.801758 15.9648 2.12988 14.29 4.78613 12.874C6.56348 11.9268 8.75586 11.1699 11.3633 10.6035C12.0957 10.418 13.2041 10.2324 14.6885 10.0469ZM17.8086 19.4951C15.7773 21.165 14.2344 22 13.1797 22C13.0625 22 13.0039 21.9414 13.0039 21.8242C13.0039 21.6484 13.1016 21.5361 13.2969 21.4873C13.6582 21.3994 14.2148 21.2041 14.9668 20.9014C15.6699 20.5205 17.457 19.1338 20.3281 16.7412C23.0527 14.4756 24.4492 13.3428 24.5176 13.3428C24.7422 13.3428 24.9619 13.4404 25.1768 13.6357C25.4014 13.8311 25.5137 14.041 25.5137 14.2656C25.5137 14.9785 24.957 16.2334 23.8438 18.0303C22.877 19.583 22.0322 20.7451 21.3096 21.5166C21.7295 21.5166 21.9395 21.5947 21.9395 21.751C21.9395 21.9463 21.7344 22.0439 21.3242 22.0439C21.2168 22.0439 21.0557 22.0244 20.8408 21.9854C20.6357 21.9463 20.4795 21.9268 20.3721 21.9268C20.2939 21.9268 20.1768 21.9414 20.0205 21.9707C19.8643 22 19.7471 22.0146 19.6689 22.0146C18.4287 22.0146 17.8086 21.1748 17.8086 19.4951ZM20.1377 20.7695C20.8213 20.2031 21.5732 19.2266 22.3936 17.8398C23.1553 16.5508 23.6875 15.4131 23.9902 14.4268L18.7461 18.6895C19.1074 18.748 19.4102 19.0312 19.6543 19.5391L20.1377 20.7695ZM19.7129 21.2236L19.3027 20.0664C19.0879 19.5 18.8779 19.2168 18.6729 19.2168C18.458 19.2168 18.3506 19.3828 18.3506 19.7148C18.3506 20.0469 18.4482 20.3887 18.6436 20.7402C18.8682 21.1406 19.1318 21.3408 19.4346 21.3408C19.5518 21.3408 19.6445 21.3018 19.7129 21.2236ZM33.4531 12.4346L28.1797 12.6396C27.8867 12.6396 27.7402 12.5615 27.7402 12.4053C27.7402 12.2783 27.9795 12.1807 28.458 12.1123C29.1318 12.0049 30.0791 11.9121 31.2998 11.834C32.6572 11.7559 33.6094 11.6826 34.1562 11.6143L36.251 9.10938C37.374 7.78125 38.0527 7.11719 38.2871 7.11719C38.5801 7.11719 38.7266 7.30273 38.7266 7.67383C38.7266 8.07422 37.8379 9.3877 36.0605 11.6143C37.0859 11.5459 37.9355 11.5117 38.6094 11.5117C39.0586 11.5117 39.2832 11.5996 39.2832 11.7754C39.2832 11.9707 38.7412 12.1025 37.6572 12.1709L35.4307 12.2441L32.1641 16.3311C30.1035 19.0166 29.0732 20.6182 29.0732 21.1357C29.0732 21.3799 29.2393 21.5068 29.5713 21.5166C29.9033 21.5166 30.0693 21.5947 30.0693 21.751C30.0693 21.9365 29.8545 22.0293 29.4248 22.0293C28.5557 22.0293 28.1211 21.6777 28.1211 20.9746C28.1211 20.418 28.4043 19.6221 28.9707 18.5869L30.2451 16.4482L25.9092 19.8613C24.1025 21.2871 22.7109 22 21.7344 22C21.6172 22 21.5586 21.9365 21.5586 21.8096C21.5586 21.6436 21.6562 21.5361 21.8516 21.4873C22.1836 21.4189 22.6865 21.248 23.3604 20.9746C24.0146 20.6328 25.4697 19.5781 27.7256 17.8105C29.3955 16.5117 30.4453 15.667 30.875 15.2764C31.6465 14.5732 32.5059 13.626 33.4531 12.4346ZM38.5361 18.6455C42.0713 15.501 44.4346 13.9287 45.626 13.9287C46.1533 13.9287 46.417 14.207 46.417 14.7637C46.417 15.3594 45.5771 16.4922 43.8975 18.1621C42.2275 19.832 41.3926 20.8135 41.3926 21.1064C41.3926 21.3799 41.6611 21.5166 42.1982 21.5166C42.335 21.5166 42.4033 21.5947 42.4033 21.751C42.4033 21.9365 42.1641 22.0293 41.6855 22.0293C40.8359 22.0293 40.4111 21.6729 40.4111 20.96C40.4111 20.1396 41.0654 19.0605 42.374 17.7227C43.9756 16.082 44.8398 15.1494 44.9668 14.9248C44.9766 14.8076 44.918 14.749 44.791 14.749C44.2539 14.749 42.8867 15.6816 40.6895 17.5469C39.0488 18.9336 37.7305 20.125 36.7344 21.1211C36.334 21.5215 36.0068 21.8145 35.7529 22C35.6064 22 35.4648 21.9072 35.3281 21.7217C35.2012 21.5361 35.1377 21.3652 35.1377 21.209C35.1377 20.9844 35.8066 20.0225 37.1445 18.3232L39.4736 15.3936C38.5264 16.2822 37.3447 17.2832 35.9287 18.3965L33.1162 20.5498C31.7002 21.5166 30.6113 22 29.8496 22C29.7324 22 29.6738 21.9414 29.6738 21.8242C29.6738 21.6484 29.7715 21.5361 29.9668 21.4873C30.7773 21.2822 31.4902 20.9893 32.1055 20.6084C33.248 19.9053 34.9619 18.5869 37.2471 16.6533L40.2061 14.1484C40.8311 13.6211 42.5645 11.6924 45.4062 8.3623C47.9648 5.36426 49.3662 3.86523 49.6104 3.86523C49.9619 3.86523 50.1377 4.08496 50.1377 4.52441C50.1377 4.82715 49.1562 6.13574 47.1934 8.4502L38.5361 18.6455ZM47.6475 19.627C47.1592 19.7441 46.2412 20.1934 44.8936 20.9746C43.7021 21.6582 42.7988 22 42.1836 22C42.0664 22 42.0078 21.9365 42.0078 21.8096C42.0078 21.6338 42.1348 21.5264 42.3887 21.4873C42.9844 21.3896 43.8242 21.0234 44.9082 20.3887C46.0996 19.7051 47.0713 19.2754 47.8232 19.0996C48.2725 18.0156 49.2002 16.8779 50.6064 15.6865C52.1006 14.4072 53.375 13.7676 54.4297 13.7676C55.2109 13.7676 55.6016 14.0996 55.6016 14.7637C55.6016 15.6328 54.7764 16.5801 53.126 17.6055C51.915 18.3672 50.6748 18.9629 49.4053 19.3926C49.2686 19.7051 49.2002 20.0322 49.2002 20.374C49.2002 20.8818 49.376 21.2139 49.7275 21.3701C49.9033 21.4385 50.2354 21.4824 50.7236 21.502C51.0752 21.5117 51.251 21.5947 51.251 21.751C51.251 21.9951 50.6504 22.1172 49.4492 22.1172C48.1797 22.1172 47.5449 21.5654 47.5449 20.4619C47.5449 20.208 47.5791 19.9297 47.6475 19.627ZM49.5811 18.8066C50.4795 18.3672 51.4268 17.7715 52.4229 17.0195C53.751 16.0332 54.415 15.252 54.415 14.6758C54.415 14.4414 54.3076 14.3242 54.0928 14.3242C53.458 14.3242 52.5938 14.9102 51.5 16.082C50.5234 17.1465 49.8838 18.0547 49.5811 18.8066ZM59.3076 15.5254C59.2588 15.2031 59.2344 15.0078 59.2344 14.9395C59.2344 14.6758 59.5469 14.2656 60.1719 13.709C60.8066 13.1426 61.2412 12.8594 61.4756 12.8594C61.7002 12.8594 61.8125 12.9619 61.8125 13.167C61.8125 13.3428 61.6904 13.6357 61.4463 14.0459C62.5498 14.0459 63.1016 14.4854 63.1016 15.3643C63.1016 16.0576 62.3887 17.166 60.9629 18.6895C59.5371 20.2031 58.8242 21.0527 58.8242 21.2383C58.8242 21.4141 58.917 21.5117 59.1025 21.5312L59.5859 21.5166C59.7227 21.5166 59.791 21.5947 59.791 21.751C59.791 21.9463 59.5078 22.0439 58.9414 22.0439C58.2188 22.0439 57.8574 21.7217 57.8574 21.0771C57.8574 20.4424 58.2188 19.6514 58.9414 18.7041C59.3906 18.1084 60.0596 17.3711 60.9482 16.4922C61.6709 15.7793 62.0322 15.3887 62.0322 15.3203C62.0322 15.1738 61.9492 15.1006 61.7832 15.1006C61.6367 15.1006 61.3584 15.1592 60.9482 15.2764C60.5381 15.3838 60.2939 15.4717 60.2158 15.54C55.6748 19.8467 52.6133 22 51.0312 22C50.9141 22 50.8555 21.9365 50.8555 21.8096C50.8555 21.6436 50.9873 21.5361 51.251 21.4873C51.5732 21.4287 51.998 21.2773 52.5254 21.0332C53.3164 20.6816 54.498 19.8467 56.0703 18.5283C57.4668 17.3662 58.5459 16.3652 59.3076 15.5254ZM95.1816 12.4492L96.6025 12.4639C97.335 12.5225 97.7012 12.7178 97.7012 13.0498C97.7012 13.2158 97.5693 13.2988 97.3057 13.2988C96.0264 13.2988 95.0547 13.3281 94.3906 13.3867L88.707 20.2422L87.9307 21.2676C87.5205 21.7559 87.1885 22 86.9346 22C86.7588 22 86.5879 21.917 86.4219 21.751C86.2656 21.585 86.1875 21.4141 86.1875 21.2383C86.1875 20.9258 87.1055 19.6074 88.9414 17.2832L92.0908 13.416L84.5469 13.709C81.7441 16.6289 79.8301 18.543 78.8047 19.4512C75.9141 22.0098 73.6436 23.2891 71.9932 23.2891C71.2607 23.2891 70.6553 23.0596 70.1768 22.6006C69.6982 22.1416 69.459 21.5459 69.459 20.8135C69.459 19.0654 70.5723 17.3418 72.7988 15.6426C75.0352 13.9336 78.4727 13.0059 83.1113 12.8594C89.3809 6.08203 92.5303 2.51758 92.5596 2.16602L92.4717 2.07812C91.7979 2.09766 90.3428 2.80566 88.1064 4.20215L84.7666 6.29688C84.6396 6.29688 84.5762 6.2334 84.5762 6.10645C84.5762 5.65723 85.9238 4.6709 88.6191 3.14746C91.3145 1.61426 93.0186 0.847656 93.7314 0.847656C93.9854 0.847656 94.2393 0.945313 94.4932 1.14062C94.7471 1.33594 94.874 1.55566 94.874 1.7998C94.874 2.15137 94.1025 3.17188 92.5596 4.86133L85.3232 12.7861L92.9258 12.4492C98.9805 5.4668 102.237 1.97559 102.696 1.97559C103.116 1.97559 103.326 2.14648 103.326 2.48828C103.326 2.74219 102.975 3.26465 102.271 4.05566C99.625 7.04395 97.2617 9.8418 95.1816 12.4492ZM82.3203 13.7383C80.0156 13.8066 78.165 14.1094 76.7686 14.6465C75.167 15.252 73.6533 16.3311 72.2275 17.8838C70.9873 19.2412 70.3672 20.3398 70.3672 21.1797C70.3672 21.9219 70.8018 22.293 71.6709 22.293C72.2275 22.293 72.9062 22.0488 73.707 21.5605C74.6152 21.0137 76.0947 19.793 78.1455 17.8984C80.0107 16.1797 81.4023 14.793 82.3203 13.7383ZM97.8184 18.0889L94.8008 20.3887C93.2578 21.4629 92.1055 22 91.3438 22C91.2266 22 91.168 21.9414 91.168 21.8242C91.168 21.6387 91.2656 21.5264 91.4609 21.4873C92.0566 21.3799 92.5645 21.209 92.9844 20.9746C93.7168 20.5742 94.9082 19.7197 96.5586 18.4111L100.426 15.2324C101.168 14.5781 101.622 14.251 101.788 14.251C102.032 14.251 102.301 14.3877 102.594 14.6611C103.16 14.2314 103.663 14.0166 104.103 14.0166C104.767 14.0166 105.099 14.373 105.099 15.0859C105.099 16.1504 104.249 17.6006 102.55 19.4365C100.821 21.292 99.4248 22.2197 98.3604 22.2197C97.3643 22.2197 96.8662 21.6973 96.8662 20.6523C96.8662 20.1055 97.1836 19.251 97.8184 18.0889ZM102.784 18.1182C103.146 17.7764 103.507 17.3125 103.868 16.7266C104.269 16.0527 104.469 15.5156 104.469 15.1152C104.469 14.7441 104.308 14.5586 103.985 14.5586C103.507 14.5586 103.023 14.8613 102.535 15.4668C102.057 16.0625 101.817 16.6045 101.817 17.0928C101.817 17.6396 102.14 17.9814 102.784 18.1182ZM101.349 16.2871C99.3564 18.0254 98.3604 19.4414 98.3604 20.5352C98.3604 21.0039 98.585 21.2383 99.0342 21.2383C99.7666 21.2383 100.909 20.3545 102.462 18.5869C101.642 18.3916 101.231 17.8643 101.231 17.0049C101.231 16.7803 101.271 16.541 101.349 16.2871ZM111.427 15.5107L107.237 18.9385C104.747 20.9795 102.965 22 101.891 22C101.773 22 101.715 21.9414 101.715 21.8242C101.715 21.6582 101.847 21.5459 102.11 21.4873C102.511 21.3994 102.95 21.2432 103.429 21.0186C104.034 20.7451 105.401 19.7588 107.53 18.0596C108.497 17.2979 109.913 16.1016 111.778 14.4707C112.501 13.7676 112.989 13.416 113.243 13.416C113.419 13.416 113.6 13.5088 113.785 13.6943C113.98 13.8799 114.078 14.0605 114.078 14.2363C114.078 14.4707 113.351 15.5156 111.896 17.3711C110.44 19.2266 109.713 20.3301 109.713 20.6816C109.713 20.9648 109.825 21.1064 110.05 21.1064C110.587 21.1064 111.793 19.9736 113.668 17.708C115.543 15.4326 116.617 14.2949 116.891 14.2949C117.232 14.2949 117.403 14.4658 117.403 14.8076C117.403 15.0322 116.861 15.916 115.777 17.459C114.703 18.9922 114.166 20.0957 114.166 20.7695C114.166 21.1113 114.308 21.2822 114.591 21.2822C115.079 21.2822 116.153 20.3398 117.813 18.4551C117.599 18.2598 117.491 17.9814 117.491 17.6201C117.491 16.8877 117.906 16.0039 118.736 14.9688C119.605 13.8945 120.382 13.3574 121.065 13.3574C121.3 13.3574 121.417 13.499 121.417 13.7822C121.417 14.6709 120.465 16.2432 118.561 18.499C116.627 20.7939 115.216 21.9414 114.327 21.9414C113.507 21.9414 113.097 21.5166 113.097 20.667C113.097 20.0713 113.321 19.3242 113.771 18.4258C112.804 19.5195 112.169 20.2129 111.866 20.5059C110.909 21.4336 110.152 21.8975 109.596 21.8975C108.893 21.8975 108.541 21.5166 108.541 20.7549C108.541 20.0225 108.907 19.0898 109.64 17.957L111.427 15.5107ZM118.297 17.8691C119.869 16.0723 120.655 14.8955 120.655 14.3389C120.655 14.2021 120.602 14.1338 120.494 14.1338C120.133 14.1338 119.64 14.5781 119.015 15.4668C118.39 16.3457 118.077 17.0049 118.077 17.4443C118.077 17.6494 118.15 17.791 118.297 17.8691ZM122.516 18.9238C119.908 20.9746 118.111 22 117.125 22C117.008 22 116.949 21.9365 116.949 21.8096C116.949 21.6338 117.066 21.5264 117.301 21.4873C118.219 21.3408 119.488 20.6328 121.109 19.3633L122.999 17.8838L126.031 15.4668C127.418 14.5098 128.604 14.0312 129.591 14.0312C130.323 14.0312 130.733 14.3975 130.821 15.1299C131.202 14.7686 131.466 14.5879 131.612 14.5879C131.935 14.5879 132.096 14.7197 132.096 14.9834C132.096 15.3252 131.344 16.3701 129.84 18.1182C128.346 19.8662 127.599 20.8867 127.599 21.1797C127.599 21.3848 127.76 21.4922 128.082 21.502C128.404 21.5117 128.565 21.5947 128.565 21.751C128.565 21.9463 128.233 22.0439 127.569 22.0439C126.915 22.0439 126.588 21.7559 126.588 21.1797C126.588 20.7207 126.852 20.0664 127.379 19.2168L125.562 20.7549C124.674 21.4189 123.966 21.751 123.438 21.751C122.599 21.751 122.179 21.3262 122.179 20.4766C122.179 20.0078 122.291 19.4902 122.516 18.9238ZM129.796 14.6318C129.22 14.6318 128.028 15.4912 126.222 17.21C124.415 18.9287 123.512 20.0762 123.512 20.6523C123.512 20.916 123.639 21.0479 123.893 21.0479C124.449 21.0479 125.641 20.208 127.467 18.5283C129.303 16.8389 130.221 15.7012 130.221 15.1152C130.221 14.793 130.079 14.6318 129.796 14.6318ZM136.622 15.5254C136.573 15.2031 136.549 15.0078 136.549 14.9395C136.549 14.6758 136.861 14.2656 137.486 13.709C138.121 13.1426 138.556 12.8594 138.79 12.8594C139.015 12.8594 139.127 12.9619 139.127 13.167C139.127 13.3428 139.005 13.6357 138.761 14.0459C139.864 14.0459 140.416 14.4854 140.416 15.3643C140.416 16.0576 139.703 17.166 138.277 18.6895C136.852 20.2031 136.139 21.0527 136.139 21.2383C136.139 21.4141 136.231 21.5117 136.417 21.5312L136.9 21.5166C137.037 21.5166 137.105 21.5947 137.105 21.751C137.105 21.9463 136.822 22.0439 136.256 22.0439C135.533 22.0439 135.172 21.7217 135.172 21.0771C135.172 20.4424 135.533 19.6514 136.256 18.7041C136.705 18.1084 137.374 17.3711 138.263 16.4922C138.985 15.7793 139.347 15.3887 139.347 15.3203C139.347 15.1738 139.264 15.1006 139.098 15.1006C138.951 15.1006 138.673 15.1592 138.263 15.2764C137.853 15.3838 137.608 15.4717 137.53 15.54C132.989 19.8467 129.928 22 128.346 22C128.229 22 128.17 21.9365 128.17 21.8096C128.17 21.6436 128.302 21.5361 128.565 21.4873C128.888 21.4287 129.312 21.2773 129.84 21.0332C130.631 20.6816 131.812 19.8467 133.385 18.5283C134.781 17.3662 135.86 16.3652 136.622 15.5254ZM142.818 18.4844L140.05 20.6084C138.683 21.5361 137.623 22 136.871 22C136.754 22 136.695 21.9414 136.695 21.8242C136.695 21.6484 136.793 21.5361 136.988 21.4873C137.74 21.3018 138.424 21.0234 139.039 20.6523C139.967 20.1055 141.266 19.0996 142.936 17.6348C144.615 16.1699 145.909 15.1689 146.817 14.6318C147.462 14.251 148.043 14.0605 148.561 14.0605C149.43 14.0605 149.884 14.4219 149.923 15.1445C151.388 13.2988 153.048 11.3262 154.903 9.22656C157.755 5.98438 159.459 4.36328 160.016 4.36328C160.328 4.36328 160.484 4.53906 160.484 4.89062C160.484 5.18359 160.089 5.74512 159.298 6.5752C157.823 8.1084 155.626 10.5889 152.706 14.0166C149.122 18.2256 147.33 20.6035 147.33 21.1504C147.33 21.375 147.491 21.4922 147.813 21.502C148.136 21.5117 148.297 21.5947 148.297 21.751C148.297 21.9463 148.062 22.0439 147.594 22.0439C146.822 22.0439 146.437 21.7266 146.437 21.0918C146.437 20.584 146.759 19.793 147.403 18.7188C145.479 20.7695 144.112 21.7949 143.302 21.7949C142.55 21.7949 142.174 21.3945 142.174 20.5938C142.174 20.1445 142.389 19.4414 142.818 18.4844ZM143.712 21.0332C144.269 21.0332 145.372 20.2031 147.022 18.543C148.673 16.873 149.498 15.7598 149.498 15.2031C149.498 14.9199 149.366 14.7783 149.103 14.7783C148.419 14.7783 147.301 15.5889 145.748 17.21C144.195 18.8311 143.419 20.0029 143.419 20.7256C143.419 20.9307 143.517 21.0332 143.712 21.0332Z" fill="#001F3F"/>
</svg>
