<svg xmlns="http://www.w3.org/2000/svg" viewBox="0 0 16 16">
<path d="M0.4771 2.718C0.6693 2.49296 0.91 2.31197 1.182 2.18788C1.454 2.06379 1.7507 1.99964 2.051 2H13.1009L13.1296 1.766C13.1883 1.27961 13.428 0.831155 13.8031 0.505652C14.1782 0.180149 14.6628 0.000227862 15.1648 0H15.3166C15.4978 0 15.6717 0.0702379 15.7998 0.195262C15.928 0.320286 16 0.489856 16 0.666667C16 0.843478 15.928 1.01305 15.7998 1.13807C15.6717 1.2631 15.4978 1.33333 15.3166 1.33333H15.1648C14.9974 1.33335 14.8359 1.3933 14.7108 1.50181C14.5857 1.61032 14.5058 1.75983 14.4862 1.922L13.5458 9.722C13.4481 10.5332 13.0486 11.2812 12.423 11.824C11.7973 12.3668 10.9891 12.6667 10.1518 12.6667H3.0147C2.8334 12.6667 2.6596 12.5964 2.5314 12.4714C2.4033 12.3464 2.3313 12.1768 2.3313 12C2.3313 11.8232 2.4033 11.6536 2.5314 11.5286C2.6596 11.4036 2.8334 11.3333 3.0147 11.3333H10.1518C10.5748 11.3322 10.9871 11.2034 11.3322 10.9647C11.6772 10.726 11.9381 10.389 12.0791 10H3.9325C3.1314 10 2.3556 9.72549 1.7409 9.22429C1.1261 8.7231 0.7115 8.02713 0.5694 7.258L0.0328999 4.35533C-0.0207001 4.06734 -0.00870003 3.77138 0.0681 3.48843C0.1449 3.20547 0.2845 2.94245 0.4771 2.718ZM1.3744 4.11867L1.9116 7.02133C1.997 7.48333 2.2462 7.90133 2.6157 8.20213C2.9851 8.50294 3.4513 8.66738 3.9325 8.66667H12.2964L12.9396 3.33333H2.051C1.9506 3.33275 1.8514 3.35375 1.7602 3.39484C1.6691 3.43593 1.5883 3.4961 1.5238 3.57107C1.4592 3.64605 1.4123 3.73398 1.3865 3.82862C1.3607 3.92327 1.3566 4.0223 1.3744 4.11867Z"/>
<path d="M11.2152 16.0002C10.4603 16.0002 9.84828 15.4032 9.84828 14.6668C9.84828 13.9305 10.4603 13.3335 11.2152 13.3335C11.9701 13.3335 12.582 13.9305 12.582 14.6668C12.582 15.4032 11.9701 16.0002 11.2152 16.0002Z"/>
<path d="M4.3831 16.0002C3.6282 16.0002 3.0163 15.4032 3.0163 14.6668C3.0163 13.9305 3.6282 13.3335 4.3831 13.3335C5.138 13.3335 5.75 13.9305 5.75 14.6668C5.75 15.4032 5.138 16.0002 4.3831 16.0002Z"/>
</svg>
