<svg xmlns="http://www.w3.org/2000/svg" viewBox="0 0 16 17" >
<path d="M13.3335 0.5H7.3335C6.96483 0.5 6.66683 0.798667 6.66683 1.16667C6.66683 1.53467 6.96483 1.83333 7.3335 1.83333H13.3335C13.4528 1.83333 13.5682 1.84933 13.6788 1.87867L0.1955 15.362C-0.0651667 15.6227 -0.0651667 16.044 0.1955 16.3047C0.3255 16.4347 0.496167 16.5 0.666833 16.5C0.8375 16.5 1.00817 16.4347 1.13817 16.3047L14.6215 2.82133C14.6508 2.93133 14.6668 3.04733 14.6668 3.16667V9.16667C14.6668 9.53467 14.9648 9.83333 15.3335 9.83333C15.7022 9.83333 16.0002 9.53467 16.0002 9.16667V3.16667C16.0002 1.696 14.8042 0.5 13.3335 0.5Z" />
</svg>
