<svg xmlns="http://www.w3.org/2000/svg" viewBox="0 0 16 16">
<path d="M2.6665 0H8.6665C9.03517 0 9.33317 0.298667 9.33317 0.66667C9.33317 1.03467 9.03517 1.33333 8.6665 1.33333H2.6665C2.5472 1.33333 2.4318 1.34933 2.3212 1.37867L15.8045 14.862C16.0652 15.1227 16.0652 15.544 15.8045 15.8047C15.6745 15.9347 15.5038 16 15.3332 16C15.1625 16 14.9918 15.9347 14.8618 15.8047L1.3785 2.32133C1.3492 2.43133 1.3332 2.54733 1.3332 2.66667V8.66667C1.3332 9.03467 1.0352 9.33333 0.6665 9.33333C0.2978 9.33333 -0.000200272 9.03467 -0.000200272 8.66667V2.66667C-0.000200272 1.196 1.1958 0 2.6665 0Z"/>
</svg>
