<svg   xmlns="http://www.w3.org/2000/svg" viewBox="0 0 32 33" >
<path d="M30.5726 8.85081C32.4796 6.94114 32.4796 3.83792 30.5726 1.93225C28.6656 0.0225828 25.5583 0.0225828 23.6527 1.93225L9.06743 16.5149C7.05507 16.4042 5.00671 17.1163 3.47177 18.6499C1.47008 20.6529 0.339218 26.3059 0.0218281 29.0131C-0.0901916 29.9639 0.232532 30.8961 0.907318 31.5709C1.49275 32.1576 2.27423 32.479 3.09437 32.479C3.21839 32.479 3.34241 32.471 3.4651 32.4564C3.78649 32.419 11.3838 31.4988 13.8523 29.0304C15.3859 27.4968 16.0967 25.4484 15.986 23.4361L30.5726 8.85081ZM11.9653 27.1434C10.8264 28.2823 6.50431 29.4118 3.15171 29.8065C2.97168 29.8346 2.84766 29.7399 2.79165 29.6839C2.73697 29.6292 2.64763 29.5092 2.66896 29.3225C3.06103 25.9859 4.23457 21.6584 5.35744 20.5342C6.2696 19.6234 7.46448 19.1687 8.66202 19.1687C9.85956 19.1687 11.0544 19.6248 11.9666 20.5342C13.7883 22.3559 13.7883 25.3204 11.9666 27.1421L11.9653 27.1434ZM13.8509 18.6499C13.3028 18.1018 12.6881 17.6577 12.0333 17.3203L25.537 3.81659C26.4038 2.94977 27.8187 2.94977 28.6856 3.81659C29.5524 4.6834 29.5524 6.09565 28.6856 6.96381L15.1805 20.4676C14.8418 19.8128 14.399 19.198 13.8509 18.6499Z" />
<path d="M6.29623 13.7129C6.55628 13.973 6.89767 14.1037 7.23906 14.1037C7.58046 14.1037 7.92185 13.973 8.1819 13.7129C8.70332 13.1915 8.70332 12.3487 8.1819 11.8273L3.31971 6.96507C2.45155 6.09692 2.45155 4.68467 3.31971 3.81651C4.18786 2.94969 5.60144 2.94969 6.46693 3.81651L11.3291 8.68004C11.8505 9.20146 12.6934 9.20146 13.2148 8.68004C13.7362 8.15861 13.7362 7.3158 13.2148 6.79437L8.35259 1.93085C6.44292 0.0238431 3.33971 0.0238431 1.43271 1.92951C-0.474297 3.83518 -0.47563 6.9424 1.43271 8.8494L6.2949 13.7116L6.29623 13.7129Z"/>
<path d="M29.6603 23.24L25.7197 19.2979C25.1982 18.7765 24.3554 18.7765 23.834 19.2979C23.3126 19.8194 23.3126 20.6622 23.834 21.1836L27.7747 25.1256C28.7682 26.1178 29.3376 27.4914 29.3376 28.897V29.8358H28.4001C26.9745 29.8358 25.6343 29.281 24.6275 28.2728L20.6854 24.3322C20.164 23.8107 19.3212 23.8107 18.7998 24.3322C18.2783 24.8536 18.2783 25.6964 18.7998 26.2178L22.7418 30.1585C24.2514 31.6708 26.2624 32.5029 28.4001 32.5029H30.6712C31.4087 32.5029 32.0048 31.9068 32.0048 31.1694V28.897C32.0048 26.7899 31.1499 24.7269 29.6603 23.24Z" />
</svg>
