<svg  xmlns="http://www.w3.org/2000/svg" viewBox="0 0 26 39" >
<path d="M25.3333 13.1943C25.3378 11.1437 24.8443 9.12263 23.8953 7.30479C22.9463 5.48695 21.5702 3.92669 19.8851 2.75807C18.2 1.58946 16.2564 0.847439 14.2213 0.595763C12.1861 0.344085 10.1203 0.590281 8.20129 1.31319C6.2823 2.03611 4.56751 3.21412 3.20426 4.74602C1.84102 6.27792 0.870079 8.11789 0.374878 10.1079C-0.120324 12.0978 -0.124984 14.1782 0.361299 16.1704C0.847582 18.1625 1.81027 20.0068 3.16664 21.5448V34.5693C3.16663 35.315 3.37724 36.0455 3.77421 36.6767C4.17119 37.3079 4.73839 37.8142 5.41048 38.1372C6.08257 38.4601 6.83222 38.5867 7.57309 38.5023C8.31397 38.4179 9.01593 38.1259 9.59814 37.66L12.1726 35.6017C12.3129 35.4896 12.4871 35.4286 12.6666 35.4286C12.8462 35.4286 13.0204 35.4896 13.1606 35.6017L15.7351 37.66C16.3173 38.1259 17.0193 38.4179 17.7602 38.5023C18.5011 38.5867 19.2507 38.4601 19.9228 38.1372C20.5949 37.8142 21.1621 37.3079 21.5591 36.6767C21.956 36.0455 22.1666 35.315 22.1666 34.5693V21.5448C24.2064 19.2414 25.3328 16.2711 25.3333 13.1943ZM12.6666 3.69435C14.5456 3.69435 16.3823 4.25151 17.9446 5.29538C19.5068 6.33926 20.7245 7.82296 21.4435 9.55885C22.1625 11.2947 22.3507 13.2049 21.9841 15.0477C21.6175 16.8905 20.7128 18.5832 19.3842 19.9118C18.0556 21.2404 16.3628 22.1452 14.52 22.5118C12.6772 22.8783 10.767 22.6902 9.03114 21.9712C7.29525 21.2522 5.81155 20.0345 4.76768 18.4722C3.7238 16.91 3.16664 15.0732 3.16664 13.1943C3.16915 10.6755 4.17085 8.26066 5.9519 6.47961C7.73295 4.69856 10.1479 3.69686 12.6666 3.69435ZM18.5519 35.2787C18.4179 35.345 18.2677 35.3714 18.1191 35.3545C17.9705 35.3377 17.83 35.2784 17.7143 35.1837L15.1398 33.1253C14.4391 32.5609 13.5664 32.2531 12.6666 32.2531C11.7669 32.2531 10.8942 32.5609 10.1935 33.1253L7.62055 35.1837C7.50438 35.2769 7.36424 35.3355 7.21625 35.3527C7.06827 35.3699 6.91844 35.3449 6.78399 35.2808C6.64953 35.2166 6.53591 35.1158 6.45619 34.99C6.37647 34.8641 6.33387 34.7183 6.3333 34.5693V24.1478C8.25542 25.2697 10.4411 25.8609 12.6666 25.8609C14.8922 25.8609 17.0779 25.2697 19 24.1478V34.5693C19.0017 34.7182 18.9604 34.8644 18.8808 34.9903C18.8013 35.1161 18.6871 35.2163 18.5519 35.2787Z" />
</svg>
