<svg xmlns="http://www.w3.org/2000/svg" viewBox="0 0 22 22" >
<path d="M13.8334 14.6639C19.8568 14.6337 22 11.4437 22 8.70833C22 7.17108 20.9119 5.885 19.4663 5.57425C19.591 5.2195 19.6992 4.89408 19.7725 4.6475C20.0961 3.55392 19.8862 2.398 19.1978 1.47675C18.4956 0.539 17.4222 0 16.2516 0H5.74842C4.57783 0 3.5035 0.539 2.80133 1.47767C2.11292 2.39892 1.90392 3.55483 2.2275 4.6475C2.30083 4.89408 2.40808 5.2195 2.53367 5.57425C1.08808 5.885 0 7.17108 0 8.70833C0 11.4437 2.14408 14.6337 8.16658 14.6639C8.21792 14.9408 8.25 15.2231 8.25 15.51V18.3333C8.25 20.0072 6.842 20.1593 6.41667 20.1667H5.5C4.99308 20.1667 4.58333 20.5764 4.58333 21.0833C4.58333 21.5903 4.99308 22 5.5 22H16.5C17.0069 22 17.4167 21.5903 17.4167 21.0833C17.4167 20.5764 17.0069 20.1667 16.5 20.1667H15.5907C15.158 20.1593 13.75 20.0072 13.75 18.3333V15.51C13.75 15.2231 13.7821 14.9408 13.8334 14.6639ZM18.7917 7.33333C19.5498 7.33333 20.1667 7.95025 20.1667 8.70833C20.1667 10.5728 18.6917 12.5556 14.6337 12.8058C14.8363 12.5318 15.0682 12.2778 15.3322 12.0533C16.9263 10.6984 18.0208 8.888 18.7486 7.32417C18.7642 7.32417 18.7761 7.33333 18.7917 7.33333ZM1.83333 8.70833C1.83333 7.95025 2.45025 7.33333 3.20833 7.33333C3.22392 7.33333 3.23675 7.32508 3.25142 7.32417C3.97925 8.888 5.07283 10.6975 6.66783 12.0533C6.93183 12.2778 7.16375 12.5308 7.36633 12.8058C3.30825 12.5556 1.83333 10.5728 1.83333 8.70833ZM9.63692 20.1667C9.90733 19.6707 10.0833 19.0722 10.0833 18.3333V15.51C10.0833 13.6299 9.27117 11.8617 7.85492 10.6572C6.23333 9.2785 4.78683 6.83742 3.98567 4.12867C3.828 3.59425 3.93067 3.02867 4.27075 2.57583C4.62275 2.10375 5.16175 1.83333 5.74842 1.83333H16.2507C16.8373 1.83333 17.3763 2.10375 17.7283 2.57492C18.0666 3.02867 18.1702 3.59425 18.0134 4.12775C17.2113 6.83833 15.7648 9.2785 14.1442 10.6572C12.7279 11.8608 11.9157 13.6299 11.9157 15.51V18.3333C11.9157 19.0722 12.0908 19.6707 12.3622 20.1667H9.63692ZM8.97508 8.94942C8.73308 8.78258 8.63133 8.47458 8.72758 8.19592L9.20333 6.72375L7.95117 5.80708C7.65142 5.58708 7.58633 5.16633 7.80633 4.86658C7.93283 4.69425 8.1345 4.59158 8.34808 4.59158H9.889L10.3574 3.13133C10.4757 2.77658 10.8588 2.58592 11.2136 2.70417C11.4152 2.77108 11.5738 2.92967 11.6408 3.13133L12.1082 4.59158H13.6492C14.0204 4.59158 14.322 4.89225 14.322 5.26442C14.322 5.47983 14.2193 5.6815 14.0461 5.808L12.7939 6.72467L13.2697 8.19683C13.3833 8.55067 13.189 8.93017 12.8343 9.04475C12.6289 9.11075 12.4043 9.07408 12.2302 8.94667L10.9991 8.041L9.76708 8.94575C9.53242 9.12083 9.21158 9.12175 8.97508 8.94942Z"/>
</svg>
