<svg xmlns="http://www.w3.org/2000/svg" viewBox="0 0 16 17">
<path d="M14.7802 1.71129L14.0803 1.10481C13.2738 0.298396 11.9673 0.298396 11.1608 1.10481C11.1408 1.12481 9.90764 2.73097 9.90764 2.73097C9.14777 3.53072 9.14777 4.79033 9.90764 5.58341L10.6809 6.55644C9.70768 8.76242 8.19458 10.2819 6.06159 11.1883L5.0884 10.4086C4.2952 9.64214 3.0287 9.64214 2.2355 10.4086C2.2355 10.4086 0.6291 11.6415 0.6091 11.6615C-0.1974 12.4679 -0.1974 13.7742 0.5758 14.5473L1.2424 15.3137C2.0089 16.0801 3.0421 16.5 4.1619 16.5C9.25441 16.5 16 9.74878 16 4.6637C16 3.55071 15.5801 2.51104 14.7802 1.71795V1.71129ZM4.1619 15.1604C3.402 15.1604 2.7021 14.8805 2.2222 14.394L1.5556 13.6276C1.2824 13.3543 1.269 12.9078 1.529 12.6212C1.529 12.6212 3.1221 11.3949 3.1421 11.3749C3.4154 11.1017 3.8953 11.1017 4.1752 11.3749C4.1952 11.3949 5.535 12.4679 5.535 12.4679C5.7216 12.6145 5.9683 12.6545 6.18824 12.5679C8.9478 11.5149 10.9275 9.54218 12.0673 6.6964C12.154 6.47647 12.1206 6.22321 11.9673 6.02994C11.9673 6.02994 10.8941 4.68369 10.8808 4.67036C10.5942 4.38379 10.5942 3.92393 10.8808 3.63735C10.9008 3.61736 12.1273 2.02452 12.1273 2.02452C12.4139 1.7646 12.8605 1.77127 13.1671 2.07784L13.867 2.68432C14.3803 3.19749 14.6669 3.89727 14.6669 4.65703C14.6669 9.29558 8.15459 15.1604 4.1619 15.1604Z"/>
</svg>
