<svg  xmlns="http://www.w3.org/2000/svg" viewBox="0 0 14 15" ><path d="M0 4.14324C0 8.59851 5.90822 14.5 10.3583 14.5C11.3323 14.5 12.2422 14.1326 12.9129 13.462L13.4962 12.7914C14.1727 12.1149 14.1727 10.9719 13.467 10.2663C13.4495 10.2488 12.0439 9.17 12.0439 9.17C11.344 8.50521 10.2417 8.50521 9.54764 9.17L8.69611 9.85229C6.82974 9.0592 5.50578 7.72962 4.65425 5.79939L5.33081 4.94799C6.00154 4.25404 6.00154 3.14605 5.33081 2.4521C5.33081 2.4521 4.25182 1.0467 4.23432 1.02921C3.5286 0.323597 2.38545 0.323597 1.67973 1.02921L1.06733 1.55988C0.367441 2.25383 0 3.16354 0 4.13741V4.14324Z"/>
</svg>
