<svg   xmlns="http://www.w3.org/2000/svg" viewBox="0 0 16 17" >
<path d="M1.2198 1.71129L1.91969 1.10481C2.72623 0.298396 4.03269 0.298396 4.83922 1.10481C4.85922 1.12481 6.09236 2.73097 6.09236 2.73097C6.85223 3.53072 6.85223 4.79033 6.09236 5.58341L5.31915 6.55644C6.29232 8.76242 7.80542 10.2819 9.93841 11.1883L10.9116 10.4086C11.7048 9.64214 12.9713 9.64214 13.7645 10.4086C13.7645 10.4086 15.3709 11.6415 15.3909 11.6615C16.1974 12.4679 16.1974 13.7742 15.4242 14.5473L14.7576 15.3137C13.9911 16.0801 12.9579 16.5 11.8381 16.5C6.74559 16.5 0 9.74878 0 4.6637C0 3.55071 0.419932 2.51104 1.2198 1.71795V1.71129ZM11.8381 15.1604C12.598 15.1604 13.2979 14.8805 13.7778 14.394L14.4444 13.6276C14.7176 13.3543 14.731 12.9078 14.471 12.6212C14.471 12.6212 12.8779 11.3949 12.8579 11.3749C12.5846 11.1017 12.1047 11.1017 11.8248 11.3749C11.8048 11.3949 10.465 12.4679 10.465 12.4679C10.2784 12.6145 10.0317 12.6545 9.81176 12.5679C7.0522 11.5149 5.07252 9.54218 3.9327 6.6964C3.84605 6.47647 3.87938 6.22321 4.03269 6.02994C4.03269 6.02994 5.10585 4.68369 5.11918 4.67036C5.4058 4.38379 5.4058 3.92393 5.11918 3.63735C5.09918 3.61736 3.87271 2.02452 3.87271 2.02452C3.58609 1.7646 3.1395 1.77127 2.83288 2.07784L2.13299 2.68432C1.61974 3.19749 1.33312 3.89727 1.33312 4.65703C1.33312 9.29558 7.84541 15.1604 11.8381 15.1604Z"/>
</svg>
