<svg xmlns="http://www.w3.org/2000/svg" viewBox="0 0 14 15">
<path d="M14 4.14324C14 8.59851 8.09178 14.5 3.6417 14.5C2.6677 14.5 1.7578 14.1326 1.0871 13.462L0.5038 12.7914C-0.1727 12.1149 -0.1727 10.9719 0.533 10.2663C0.5505 10.2488 1.9561 9.17 1.9561 9.17C2.656 8.50521 3.7583 8.50521 4.45236 9.17L5.30389 9.85229C7.17026 9.0592 8.49422 7.72962 9.34575 5.79939L8.66919 4.94799C7.99846 4.25404 7.99846 3.14605 8.66919 2.4521C8.66919 2.4521 9.74818 1.0467 9.76568 1.02921C10.4714 0.323597 11.6145 0.323597 12.3203 1.02921L12.9327 1.55988C13.6326 2.25383 14 3.16354 14 4.13741V4.14324Z"/>
</svg>
