<svg xmlns="http://www.w3.org/2000/svg" viewBox="0 0 35 27" >
<path d="M11.5844 5.79284H32.5833C33.1594 5.79284 33.7119 5.56397 34.1193 5.15659C34.5267 4.7492 34.7556 4.19667 34.7556 3.62054C34.7556 3.04441 34.5267 2.49188 34.1193 2.08449C33.7119 1.67711 33.1594 1.44824 32.5833 1.44824H11.5844C11.0083 1.44824 10.4557 1.67711 10.0484 2.08449C9.64098 2.49188 9.41211 3.04441 9.41211 3.62054C9.41211 4.19667 9.64098 4.7492 10.0484 5.15659C10.4557 5.56397 11.0083 5.79284 11.5844 5.79284Z" />
<path d="M32.5833 11.5854H11.5844C11.0083 11.5854 10.4557 11.8143 10.0484 12.2217C9.64098 12.6291 9.41211 13.1816 9.41211 13.7577C9.41211 14.3339 9.64098 14.8864 10.0484 15.2938C10.4557 15.7012 11.0083 15.93 11.5844 15.93H32.5833C33.1594 15.93 33.7119 15.7012 34.1193 15.2938C34.5267 14.8864 34.7556 14.3339 34.7556 13.7577C34.7556 13.1816 34.5267 12.6291 34.1193 12.2217C33.7119 11.8143 33.1594 11.5854 32.5833 11.5854Z" />
<path d="M32.5833 21.7229H11.5844C11.0083 21.7229 10.4557 21.9518 10.0484 22.3592C9.64098 22.7665 9.41211 23.3191 9.41211 23.8952C9.41211 24.4713 9.64098 25.0239 10.0484 25.4312C10.4557 25.8386 11.0083 26.0675 11.5844 26.0675H32.5833C33.1594 26.0675 33.7119 25.8386 34.1193 25.4312C34.5267 25.0239 34.7556 24.4713 34.7556 23.8952C34.7556 23.3191 34.5267 22.7665 34.1193 22.3592C33.7119 21.9518 33.1594 21.7229 32.5833 21.7229Z" />
<path d="M3.6205 7.24099C5.62004 7.24099 7.24099 5.62004 7.24099 3.6205C7.24099 1.62095 5.62004 0 3.6205 0C1.62095 0 0 1.62095 0 3.6205C0 5.62004 1.62095 7.24099 3.6205 7.24099Z" />
<path d="M3.6205 16.6543C5.62004 16.6543 7.24099 15.0334 7.24099 13.0338C7.24099 11.0343 5.62004 9.41333 3.6205 9.41333C1.62095 9.41333 0 11.0343 0 13.0338C0 15.0334 1.62095 16.6543 3.6205 16.6543Z" />
<path d="M3.6205 26.7918C5.62004 26.7918 7.24099 25.1708 7.24099 23.1713C7.24099 21.1717 5.62004 19.5508 3.6205 19.5508C1.62095 19.5508 0 21.1717 0 23.1713C0 25.1708 1.62095 26.7918 3.6205 26.7918Z" />
</svg>
