<svg xmlns="http://www.w3.org/2000/svg" viewBox="0 0 22 22" >
<path d="M13.7509 5.5C13.7509 2.46675 11.2842 0 8.25092 0C5.21767 0 2.75092 2.46675 2.75092 5.5C2.75092 8.53325 5.21767 11 8.25092 11C11.2842 11 13.7509 8.53325 13.7509 5.5ZM8.25092 9.16667C6.22875 9.16667 4.58425 7.52217 4.58425 5.5C4.58425 3.47783 6.22875 1.83333 8.25092 1.83333C10.2731 1.83333 11.9176 3.47783 11.9176 5.5C11.9176 7.52217 10.2731 9.16667 8.25092 9.16667ZM8.24358 13.6932C8.30592 14.1955 7.95025 14.6529 7.447 14.7162C4.24692 15.1158 1.83333 17.8521 1.83333 21.0833C1.83333 21.5893 1.42267 22 0.916667 22C0.410667 22 0 21.5893 0 21.0833C0 16.9299 3.10383 13.4108 7.21967 12.8975C7.7165 12.8343 8.17942 13.1908 8.24267 13.6941L8.24358 13.6932ZM20.8056 17.5386L19.9128 17.0234C20.0649 16.5678 20.1676 16.0893 20.1676 15.5824C20.1676 15.0755 20.0658 14.597 19.9128 14.1414L20.8056 13.6263C21.2437 13.3733 21.3941 12.8123 21.1411 12.3741C20.8872 11.935 20.328 11.7838 19.8889 12.0386L18.997 12.5538C18.3507 11.8259 17.49 11.2933 16.5009 11.0926V10.0833C16.5009 9.57733 16.0903 9.16667 15.5842 9.16667C15.0782 9.16667 14.6676 9.57733 14.6676 10.0833V11.0926C13.6785 11.2943 12.8178 11.8268 12.1715 12.5538L11.2796 12.0386C10.8396 11.7847 10.2804 11.935 10.0274 12.3741C9.77442 12.8132 9.92475 13.3733 10.3629 13.6263L11.2558 14.1414C11.1036 14.597 11.0009 15.0755 11.0009 15.5824C11.0009 16.0893 11.1027 16.5678 11.2558 17.0234L10.3629 17.5386C9.92475 17.7916 9.77442 18.3526 10.0274 18.7908C10.1979 19.085 10.505 19.2491 10.8222 19.2491C10.9771 19.2491 11.1348 19.2097 11.2796 19.1262L12.1715 18.6111C12.8178 19.3389 13.6785 19.8715 14.6676 20.0723V21.0815C14.6676 21.5875 15.0782 21.9982 15.5842 21.9982C16.0903 21.9982 16.5009 21.5875 16.5009 21.0815V20.0723C17.49 19.8706 18.3507 19.338 18.997 18.6111L19.8889 19.1262C20.0337 19.2097 20.1914 19.2491 20.3463 19.2491C20.6635 19.2491 20.9715 19.085 21.1411 18.7908C21.3941 18.3517 21.2437 17.7916 20.8056 17.5386ZM15.5842 18.3324C14.0681 18.3324 12.8343 17.0986 12.8343 15.5824C12.8343 14.0663 14.0681 12.8324 15.5842 12.8324C17.1004 12.8324 18.3342 14.0663 18.3342 15.5824C18.3342 17.0986 17.1004 18.3324 15.5842 18.3324Z"/>
</svg>
