<svg xmlns="http://www.w3.org/2000/svg" viewBox="0 0 16 17" >
<path d="M16.0008 7.514C15.9043 5.95401 15.3535 4.45634 14.4162 3.20562C13.4789 1.95489 12.1961 1.0058 10.7259 0.475331C9.25571 -0.0551344 7.66242 -0.143777 6.14246 0.220331C4.6225 0.584439 3.24231 1.38538 2.17205 2.52441C1.10179 3.66345 0.388246 5.09078 0.11938 6.63044C-0.149485 8.1701 0.0380834 9.75479 0.658963 11.1891C1.27984 12.6235 2.30689 13.8448 3.61349 14.7025C4.92009 15.5602 6.44912 16.0168 8.01209 16.016H12.6674C13.5512 16.0151 14.3985 15.6636 15.0235 15.0387C15.6484 14.4138 15.9999 13.5665 16.0008 12.6827V7.514ZM14.6674 12.6827C14.6674 13.2131 14.4567 13.7218 14.0816 14.0969C13.7066 14.472 13.1979 14.6827 12.6674 14.6827H8.01209C7.07137 14.6822 6.14131 14.4835 5.28255 14.0995C4.42379 13.7155 3.6556 13.1548 3.02809 12.454C2.39754 11.7535 1.92404 10.9263 1.63935 10.0279C1.35466 9.1294 1.26535 8.18046 1.37742 7.24467C1.55438 5.76863 2.21755 4.39346 3.26238 3.33595C4.30722 2.27844 5.67429 1.59874 7.14809 1.404C7.43558 1.36797 7.72501 1.34971 8.01475 1.34933C9.5684 1.3451 11.074 1.88794 12.2674 2.88267C12.9644 3.46196 13.5366 4.17677 13.9491 4.98375C14.3617 5.79074 14.606 6.67309 14.6674 7.57733V12.6827Z" />
<path d="M5.33464 6.01595H8.0013C8.17811 6.01595 8.34768 5.94571 8.47271 5.82069C8.59773 5.69566 8.66797 5.52609 8.66797 5.34928C8.66797 5.17247 8.59773 5.0029 8.47271 4.87788C8.34768 4.75286 8.17811 4.68262 8.0013 4.68262H5.33464C5.15782 4.68262 4.98826 4.75286 4.86323 4.87788C4.73821 5.0029 4.66797 5.17247 4.66797 5.34928C4.66797 5.52609 4.73821 5.69566 4.86323 5.82069C4.98826 5.94571 5.15782 6.01595 5.33464 6.01595Z" />
<path d="M10.668 7.34912H5.33464C5.15782 7.34912 4.98826 7.41936 4.86323 7.54438C4.73821 7.66941 4.66797 7.83898 4.66797 8.01579C4.66797 8.1926 4.73821 8.36217 4.86323 8.48719C4.98826 8.61222 5.15782 8.68245 5.33464 8.68245H10.668C10.8448 8.68245 11.0143 8.61222 11.1394 8.48719C11.2644 8.36217 11.3346 8.1926 11.3346 8.01579C11.3346 7.83898 11.2644 7.66941 11.1394 7.54438C11.0143 7.41936 10.8448 7.34912 10.668 7.34912Z" />
<path d="M10.668 10.0161H5.33464C5.15782 10.0161 4.98826 10.0864 4.86323 10.2114C4.73821 10.3364 4.66797 10.506 4.66797 10.6828C4.66797 10.8596 4.73821 11.0292 4.86323 11.1542C4.98826 11.2792 5.15782 11.3494 5.33464 11.3494H10.668C10.8448 11.3494 11.0143 11.2792 11.1394 11.1542C11.2644 11.0292 11.3346 10.8596 11.3346 10.6828C11.3346 10.506 11.2644 10.3364 11.1394 10.2114C11.0143 10.0864 10.8448 10.0161 10.668 10.0161Z" />
</svg>
