<svg xmlns="http://www.w3.org/2000/svg" viewBox="0 0 20 20" >
<path d="M1.39648 8.25165H1.03125C0.459766 8.25165 0 7.79188 0 7.2204V1.7204C0 1.3036 0.249219 0.925479 0.635937 0.766494C1.02266 0.60751 1.46523 0.693447 1.76172 0.989932L3.54922 2.77743C7.31328 -0.939365 13.3762 -0.926474 17.1187 2.8204C20.8785 6.58017 20.8785 12.6731 17.1187 16.4329C13.359 20.1927 7.26602 20.1927 3.50625 16.4329C2.96914 15.8958 2.96914 15.0235 3.50625 14.4864C4.04336 13.9493 4.91562 13.9493 5.45273 14.4864C8.13828 17.172 12.491 17.172 15.1766 14.4864C17.8621 11.8009 17.8621 7.44813 15.1766 4.76259C12.5039 2.08993 8.18555 2.07704 5.4957 4.71962L7.26172 6.48993C7.5582 6.78642 7.64414 7.22899 7.48516 7.61571C7.32617 8.00243 6.94805 8.25165 6.53125 8.25165H1.39648Z"/>
</svg>
