<svg xmlns="http://www.w3.org/2000/svg" viewBox="0 0 20 20">
<path d="M18.6035 8.25165H18.9688C19.5402 8.25165 20 7.79188 20 7.2204V1.7204C20 1.3036 19.7508 0.925479 19.3641 0.766494C18.9773 0.60751 18.5348 0.693447 18.2383 0.989932L16.4508 2.77743C12.6867 -0.939365 6.6238 -0.926474 2.8813 2.8204C-0.8785 6.58017 -0.8785 12.6731 2.8813 16.4329C6.641 20.1927 12.734 20.1927 16.4938 16.4329C17.0309 15.8958 17.0309 15.0235 16.4938 14.4864C15.9566 13.9493 15.0844 13.9493 14.5473 14.4864C11.8617 17.172 7.509 17.172 4.8234 14.4864C2.1379 11.8009 2.1379 7.44813 4.8234 4.76259C7.4961 2.08993 11.8145 2.07704 14.5043 4.71962L12.7383 6.48993C12.4418 6.78642 12.3559 7.22899 12.5148 7.61571C12.6738 8.00243 13.052 8.25165 13.4688 8.25165H18.6035Z"/>
</svg>
