<svg   xmlns="http://www.w3.org/2000/svg" viewBox="0 0 20 17" >
<path d="M14.9782 4.45501C14.7015 4.40001 14.4757 4.22751 14.3599 3.98084C13.0665 1.25501 10.074 -0.269157 7.08069 0.282509C4.35402 0.78251 2.21652 2.95918 1.76069 5.70001C1.62569 6.50918 1.63569 7.31918 1.78819 8.10834C1.83819 8.36584 1.72736 8.65251 1.49986 8.85918C0.54569 9.7267 -0.000976562 10.9625 -0.000976562 12.2508C-0.000976562 14.7775 2.05486 16.8342 4.58236 16.8342H13.749C17.1957 16.8342 19.999 14.0308 19.999 10.5842C19.999 7.61334 17.8874 5.03584 14.9774 4.45584L14.9782 4.45501ZM13.7499 15.1667H4.58319C2.97486 15.1667 1.66652 13.8583 1.66652 12.25C1.66652 11.4308 2.01486 10.6433 2.62152 10.0917C3.27652 9.49584 3.58402 8.61418 3.42402 7.78918C3.30902 7.19584 3.30236 6.58501 3.40402 5.97168C3.73986 3.95334 5.37486 2.28751 7.37986 1.92001C7.70069 1.86168 8.01986 1.83334 8.33402 1.83334C10.2607 1.83334 12.0057 2.90751 12.8524 4.69501C13.1974 5.42168 13.8524 5.92918 14.6507 6.08918C16.7832 6.51501 18.3315 8.40418 18.3315 10.5842C18.3315 13.1108 16.2757 15.1675 13.7482 15.1675L13.7499 15.1667ZM12.6007 9.5775C12.9265 9.9033 12.9265 10.43 12.6007 10.7558L10.3449 13.0117C10.0224 13.3342 9.59819 13.4967 9.17402 13.4983L9.16652 13.5L9.15902 13.4983C8.73486 13.4967 8.31069 13.3342 7.98819 13.0117L5.73236 10.7558C5.40652 10.43 5.40652 9.9033 5.73236 9.5775C6.05819 9.25168 6.58486 9.25168 6.91069 9.5775L8.33319 11V6.83334C8.33319 6.37251 8.70652 6.00001 9.16652 6.00001C9.62652 6.00001 9.99986 6.37251 9.99986 6.83334V11L11.4224 9.5775C11.7482 9.25168 12.2749 9.25168 12.6007 9.5775Z" />
</svg>
