<svg xmlns="http://www.w3.org/2000/svg" viewBox="0 0 36 36">
<path d="M1.545 9.3765C2.5005 8.8455 3.6675 8.88 4.695 9.528L12 15.0015V12C12 10.9095 12.5925 9.9045 13.545 9.3765C14.5005 8.8455 15.669 8.88 16.695 9.528L24 15.0015V3C23.1705 3 22.5 2.328 22.5 1.5C22.5 0.672 23.1705 0 24 0H34.5C35.3295 0 36 0.672 36 1.5C36 2.328 35.3295 3 34.5 3V28.5C34.5 32.6355 31.1355 36 27 36H7.5C3.3645 36 0 32.6355 0 28.5V12C0 10.9095 0.592498 9.9045 1.545 9.3765ZM3 28.5C3 30.981 5.019 33 7.5 33H27C29.481 33 31.5 30.981 31.5 28.5V3H27V17.9865C27 17.997 27 18.0075 27 18.0165V27C27 27.828 26.3295 28.5 25.5 28.5C24.6705 28.5 24 27.828 24 27V18.75L15 12V18C15 18.5685 14.679 19.0875 14.1705 19.3425C13.662 19.5975 13.056 19.5435 12.6 19.2015L3 12.0015V28.5ZM15 25.5V27C15 27.828 15.672 28.5 16.5 28.5H18C18.828 28.5 19.5 27.828 19.5 27V25.5C19.5 24.672 18.828 24 18 24H16.5C15.672 24 15 24.672 15 25.5ZM12 27V25.5C12 24.672 11.328 24 10.5 24H9C8.172 24 7.5 24.672 7.5 25.5V27C7.5 27.828 8.172 28.5 9 28.5H10.5C11.328 28.5 12 27.828 12 27Z"/>
</svg>
