<svg xmlns="http://www.w3.org/2000/svg" viewBox="0 0 18 15">
<path d="M14.25 0H3.75C2.7558 0.00108263 1.80267 0.360601 1.09966 0.999695C0.396661 1.63879 0.00119089 2.50528 0 3.40909L0 11.5909C0.00119089 12.4947 0.396661 13.3612 1.09966 14.0003C1.80267 14.6394 2.7558 14.9989 3.75 15H14.25C15.2442 14.9989 16.1973 14.6394 16.9003 14.0003C17.6033 13.3612 17.9988 12.4947 18 11.5909V3.40909C17.9988 2.50528 17.6033 1.63879 16.9003 0.999695C16.1973 0.360601 15.2442 0.00108263 14.25 0ZM3.75 1.36364H14.25C14.6991 1.36444 15.1376 1.4874 15.5092 1.71668C15.8808 1.94597 16.1684 2.2711 16.335 2.65023L10.5915 7.87227C10.1688 8.25499 9.59656 8.46986 9 8.46986C8.40344 8.46986 7.83118 8.25499 7.4085 7.87227L1.665 2.65023C1.83161 2.2711 2.11921 1.94597 2.49079 1.71668C2.86236 1.4874 3.30091 1.36444 3.75 1.36364ZM14.25 13.6364H3.75C3.15326 13.6364 2.58097 13.4209 2.15901 13.0373C1.73705 12.6537 1.5 12.1334 1.5 11.5909V4.43182L6.348 8.83636C7.05197 9.47472 8.00569 9.83321 9 9.83321C9.99431 9.83321 10.948 9.47472 11.652 8.83636L16.5 4.43182V11.5909C16.5 12.1334 16.2629 12.6537 15.841 13.0373C15.419 13.4209 14.8467 13.6364 14.25 13.6364Z"/>
</svg>
