<svg xmlns="http://www.w3.org/2000/svg" viewBox="0 0 35 38" >
<path d="M17.597 12.6666C16.3444 12.6666 15.1199 13.0381 14.0784 13.734C13.0369 14.4299 12.2251 15.419 11.7458 16.5763C11.2664 17.7336 11.141 19.007 11.3854 20.2355C11.6297 21.4641 12.2329 22.5926 13.1187 23.4783C14.0044 24.364 15.1329 24.9672 16.3614 25.2116C17.59 25.456 18.8634 25.3306 20.0207 24.8512C21.1779 24.3718 22.1671 23.5601 22.863 22.5186C23.5589 21.4771 23.9303 20.2526 23.9303 19C23.9303 17.3203 23.2631 15.7093 22.0754 14.5216C20.8876 13.3339 19.2767 12.6666 17.597 12.6666ZM17.597 22.1666C16.9707 22.1666 16.3585 21.9809 15.8377 21.6329C15.3169 21.285 14.9111 20.7904 14.6714 20.2118C14.4317 19.6332 14.369 18.9964 14.4912 18.3822C14.6134 17.7679 14.915 17.2037 15.3578 16.7608C15.8007 16.3179 16.365 16.0163 16.9792 15.8941C17.5935 15.772 18.2302 15.8347 18.8088 16.0743C19.3875 16.314 19.882 16.7199 20.23 17.2407C20.578 17.7614 20.7637 18.3737 20.7637 19C20.7637 19.8398 20.43 20.6453 19.8362 21.2391C19.2423 21.833 18.4369 22.1666 17.597 22.1666Z" />
<path d="M32.3122 22.0083L31.6092 21.603C31.9257 19.881 31.9257 18.1158 31.6092 16.3938L32.3122 15.9885C32.8528 15.6766 33.3267 15.2613 33.7068 14.7663C34.0869 14.2712 34.3658 13.7062 34.5275 13.1034C34.6892 12.5006 34.7306 11.8718 34.6494 11.253C34.5681 10.6342 34.3657 10.0374 34.0539 9.49683C33.742 8.95623 33.3266 8.48234 32.8316 8.10224C32.3366 7.72214 31.7715 7.44326 31.1687 7.28153C30.5659 7.1198 29.9372 7.07839 29.3184 7.15966C28.6995 7.24092 28.1028 7.44328 27.5622 7.75517L26.8576 8.16208C25.5269 7.02512 23.9976 6.14373 22.3467 5.56225V4.75C22.3467 3.49022 21.8462 2.28204 20.9554 1.39124C20.0646 0.500445 18.8565 0 17.5967 0C16.3369 0 15.1287 0.500445 14.2379 1.39124C13.3471 2.28204 12.8467 3.49022 12.8467 4.75V5.56225C11.1959 6.14581 9.66711 7.02937 8.33735 8.16842L7.6296 7.75833C6.5378 7.12844 5.24048 6.95807 4.02306 7.2847C2.80563 7.61132 1.76783 8.40819 1.13794 9.5C0.508048 10.5918 0.337676 11.8891 0.664302 13.1065C0.990928 14.324 1.7878 15.3618 2.8796 15.9917L3.5826 16.397C3.26611 18.119 3.26611 19.8842 3.5826 21.6062L2.8796 22.0115C1.7878 22.6414 0.990928 23.6792 0.664302 24.8966C0.337676 26.114 0.508048 27.4114 1.13794 28.5032C1.76783 29.595 2.80563 30.3918 4.02306 30.7185C5.24048 31.0451 6.5378 30.8747 7.6296 30.2448L8.33419 29.8379C9.6654 30.975 11.1952 31.8565 12.8467 32.4378V33.25C12.8467 34.5098 13.3471 35.718 14.2379 36.6088C15.1287 37.4996 16.3369 38 17.5967 38C18.8565 38 20.0646 37.4996 20.9554 36.6088C21.8462 35.718 22.3467 34.5098 22.3467 33.25V32.4378C23.9975 31.8542 25.5263 30.9706 26.856 29.8316L27.5638 30.2401C28.6556 30.87 29.9529 31.0403 31.1703 30.7137C32.3877 30.3871 33.4255 29.5902 34.0554 28.4984C34.6853 27.4066 34.8557 26.1093 34.5291 24.8919C34.2024 23.6744 33.4056 22.6366 32.3138 22.0068L32.3122 22.0083ZM28.2779 16.0297C28.814 17.9725 28.814 20.0243 28.2779 21.9672C28.1842 22.3053 28.2056 22.665 28.3386 22.9897C28.4715 23.3144 28.7086 23.5857 29.0125 23.7611L30.7289 24.7523C31.0927 24.9622 31.3583 25.3081 31.4671 25.7139C31.5759 26.1196 31.5191 26.552 31.3091 26.9159C31.0992 27.2797 30.7533 27.5453 30.3475 27.6541C29.9418 27.7629 29.5094 27.7061 29.1455 27.4962L27.426 26.5018C27.1219 26.3257 26.7677 26.2557 26.4194 26.303C26.0711 26.3503 25.7484 26.5122 25.5023 26.7631C24.093 28.2018 22.3175 29.2283 20.3675 29.7318C20.0272 29.8193 19.7256 30.0176 19.5103 30.2954C19.295 30.5731 19.1783 30.9146 19.1784 31.2661V33.25C19.1784 33.6699 19.0116 34.0727 18.7147 34.3696C18.4178 34.6665 18.015 34.8333 17.5951 34.8333C17.1752 34.8333 16.7724 34.6665 16.4755 34.3696C16.1786 34.0727 16.0118 33.6699 16.0118 33.25V31.2677C16.0119 30.9162 15.8952 30.5747 15.6799 30.297C15.4646 30.0192 15.1631 29.8209 14.8227 29.7334C12.8726 29.2278 11.0976 28.1991 9.68952 26.7583C9.44335 26.5074 9.12069 26.3456 8.77238 26.2983C8.42408 26.251 8.06994 26.3209 7.76577 26.4971L6.04944 27.4898C5.8693 27.5954 5.67005 27.6644 5.46317 27.6927C5.25628 27.7209 5.04585 27.708 4.84397 27.6547C4.6421 27.6013 4.45277 27.5085 4.2869 27.3817C4.12103 27.2548 3.98188 27.0964 3.87748 26.9156C3.77307 26.7348 3.70546 26.5351 3.67855 26.328C3.65163 26.1209 3.66594 25.9106 3.72065 25.7091C3.77536 25.5076 3.86939 25.3189 3.99733 25.1538C4.12527 24.9888 4.28458 24.8507 4.4661 24.7475L6.18244 23.7563C6.48636 23.581 6.72342 23.3097 6.8564 22.9849C6.98937 22.6602 7.01073 22.3006 6.9171 21.9624C6.38092 20.0196 6.38092 17.9678 6.9171 16.0249C7.00904 15.6875 6.98667 15.3291 6.85348 15.0057C6.72028 14.6823 6.48377 14.4121 6.18085 14.2373L4.46452 13.2462C4.10065 13.0362 3.8351 12.6903 3.72627 12.2845C3.61745 11.8788 3.67426 11.4464 3.88423 11.0825C4.09419 10.7187 4.4401 10.4531 4.84586 10.3443C5.25162 10.2355 5.68399 10.2923 6.04785 10.5022L7.76735 11.4966C8.07069 11.6731 8.42409 11.7439 8.77202 11.6978C9.11995 11.6516 9.44269 11.4912 9.68952 11.2417C11.0988 9.80296 12.8743 8.77645 14.8243 8.27292C15.1657 8.18514 15.468 7.98594 15.6834 7.70688C15.8988 7.42781 16.0149 7.08485 16.0134 6.73233V4.75C16.0134 4.33007 16.1802 3.92735 16.4771 3.63041C16.774 3.33348 17.1768 3.16667 17.5967 3.16667C18.0166 3.16667 18.4193 3.33348 18.7163 3.63041C19.0132 3.92735 19.18 4.33007 19.18 4.75V6.73233C19.1798 7.08377 19.2966 7.42527 19.5119 7.70304C19.7272 7.98082 20.0287 8.17908 20.3691 8.26658C22.3198 8.77191 24.0953 9.80065 25.5039 11.2417C25.75 11.4926 26.0727 11.6544 26.421 11.7017C26.7693 11.749 27.1234 11.6791 27.4276 11.5029L29.1439 10.5102C29.3241 10.4046 29.5233 10.3356 29.7302 10.3073C29.9371 10.2791 30.1475 10.292 30.3494 10.3453C30.5513 10.3987 30.7406 10.4915 30.9065 10.6183C31.0723 10.7452 31.2115 10.9036 31.3159 11.0844C31.4203 11.2652 31.4879 11.4649 31.5148 11.672C31.5417 11.8791 31.5274 12.0894 31.4727 12.2909C31.418 12.4924 31.324 12.6811 31.196 12.8462C31.0681 13.0112 30.9088 13.1493 30.7273 13.2525L29.0109 14.2437C28.7086 14.419 28.4727 14.6893 28.3401 15.0127C28.2075 15.336 28.1856 15.6942 28.2779 16.0312V16.0297Z" />
</svg>
