<svg xmlns="http://www.w3.org/2000/svg" viewBox="0 0 22 21">
<path d="M4.8748 3.66667H6.5734C6.8979 2.40442 7.7183 1.30075 8.877 0.638917C9.5333 0.264917 10.3757 0.491333 10.7525 1.15133C11.1292 1.81133 10.8992 2.651 10.2392 3.02683C9.5773 3.40542 9.1657 4.11308 9.1657 4.87483V14.6667H18.0006C18.6899 14.6667 19.25 14.1057 19.25 13.4163V11.9167H17.875C17.116 11.9167 16.5 11.3016 16.5 10.5417C16.5 9.78175 17.116 9.16667 17.875 9.16667H20.625C21.384 9.16667 22 9.78175 22 10.5417V13.4163C22 15.1901 20.8331 16.6797 19.2317 17.2022C19.2372 17.2737 19.25 17.3433 19.25 17.4158C19.25 18.9347 18.0189 20.1658 16.5 20.1658C14.9811 20.1658 13.75 18.9347 13.75 17.4158H8.25C8.25 18.9347 7.0189 20.1658 5.5 20.1658C3.9811 20.1658 2.75 18.9347 2.75 17.4158C2.75 17.3424 2.7628 17.2728 2.7683 17.2022C1.1678 16.6797 0 15.1892 0 13.4163V8.50025C0 5.83458 2.1872 3.66667 4.8748 3.66667ZM2.75 8.50025V9.16667H6.4167V6.41667H4.8748C3.6832 6.41667 2.75 7.33242 2.75 8.50025ZM3.9994 14.6667H6.4167V11.9167H2.75V13.4163C2.75 14.1057 3.3101 14.6667 3.9994 14.6667ZM22 1.375C22 0.615083 21.384 0 20.625 0H14.2083C13.4493 0 12.8333 0.615083 12.8333 1.375C12.8333 2.13492 13.4493 2.75 14.2083 2.75H20.625C21.384 2.75 22 2.13492 22 1.375ZM22 5.95833C22 5.19842 21.384 4.58333 20.625 4.58333H16.0417C15.2827 4.58333 14.6667 5.19842 14.6667 5.95833C14.6667 6.71825 15.2827 7.33333 16.0417 7.33333H20.625C21.384 7.33333 22 6.71825 22 5.95833Z"/>
</svg>
