<svg xmlns="http://www.w3.org/2000/svg" viewBox="0 0 22 21" >
<path d="M17.1252 3.66667H15.4266C15.1021 2.40442 14.2817 1.30075 13.123 0.638917C12.4667 0.264917 11.6243 0.491333 11.2475 1.15133C10.8708 1.81133 11.1008 2.651 11.7608 3.02683C12.4227 3.40542 12.8343 4.11308 12.8343 4.87483V14.6667H3.99942C3.31008 14.6667 2.75 14.1057 2.75 13.4163V11.9167H4.125C4.884 11.9167 5.5 11.3016 5.5 10.5417C5.5 9.78175 4.884 9.16667 4.125 9.16667H1.375C0.616 9.16667 0 9.78175 0 10.5417V13.4163C0 15.1901 1.16692 16.6797 2.76833 17.2022C2.76283 17.2737 2.75 17.3433 2.75 17.4158C2.75 18.9347 3.98108 20.1658 5.5 20.1658C7.01892 20.1658 8.25 18.9347 8.25 17.4158H13.75C13.75 18.9347 14.9811 20.1658 16.5 20.1658C18.0189 20.1658 19.25 18.9347 19.25 17.4158C19.25 17.3424 19.2372 17.2728 19.2317 17.2022C20.8322 16.6797 22 15.1892 22 13.4163V8.50025C22 5.83458 19.8128 3.66667 17.1252 3.66667ZM19.25 8.50025V9.16667H15.5833V6.41667H17.1252C18.3168 6.41667 19.25 7.33242 19.25 8.50025ZM18.0006 14.6667H15.5833V11.9167H19.25V13.4163C19.25 14.1057 18.6899 14.6667 18.0006 14.6667ZM0 1.375C0 0.615083 0.616 0 1.375 0H7.79167C8.55067 0 9.16667 0.615083 9.16667 1.375C9.16667 2.13492 8.55067 2.75 7.79167 2.75H1.375C0.616 2.75 0 2.13492 0 1.375ZM0 5.95833C0 5.19842 0.616 4.58333 1.375 4.58333H5.95833C6.71733 4.58333 7.33333 5.19842 7.33333 5.95833C7.33333 6.71825 6.71733 7.33333 5.95833 7.33333H1.375C0.616 7.33333 0 6.71825 0 5.95833Z"/>
</svg>
