<svg xmlns="http://www.w3.org/2000/svg" viewBox="0 0 22 22" >
<path d="M17.4167 0H4.58333C3.3682 0.00145554 2.20326 0.484808 1.34403 1.34403C0.484808 2.20326 0.00145554 3.3682 0 4.58333L0 9.16667C0.00218297 10.8678 0.678924 12.4986 1.88181 13.7015C3.08469 14.9044 4.71553 15.5812 6.41667 15.5833H8.25V19.25C8.25 19.9793 8.53973 20.6788 9.05546 21.1945C9.57118 21.7103 10.2707 22 11 22C11.7293 22 12.4288 21.7103 12.9445 21.1945C13.4603 20.6788 13.75 19.9793 13.75 19.25V15.5833H15.5833C17.2845 15.5812 18.9153 14.9044 20.1182 13.7015C21.3211 12.4986 21.9978 10.8678 22 9.16667V4.58333C21.9985 3.3682 21.5152 2.20326 20.656 1.34403C19.7967 0.484808 18.6318 0.00145554 17.4167 0ZM1.83333 4.58333C1.83333 3.85399 2.12306 3.15451 2.63879 2.63879C3.15451 2.12306 3.85399 1.83333 4.58333 1.83333H9.16667V2.75C9.16667 2.99312 9.26324 3.22627 9.43515 3.39818C9.60706 3.57009 9.84022 3.66667 10.0833 3.66667C10.3264 3.66667 10.5596 3.57009 10.7315 3.39818C10.9034 3.22627 11 2.99312 11 2.75V1.83333H12.8333V4.58333C12.8333 4.82645 12.9299 5.05961 13.1018 5.23151C13.2737 5.40342 13.5069 5.5 13.75 5.5C13.9931 5.5 14.2263 5.40342 14.3982 5.23151C14.5701 5.05961 14.6667 4.82645 14.6667 4.58333V1.83333H16.5V6.41667C16.5 6.65978 16.5966 6.89294 16.7685 7.06485C16.9404 7.23676 17.1736 7.33333 17.4167 7.33333C17.6598 7.33333 17.8929 7.23676 18.0648 7.06485C18.2368 6.89294 18.3333 6.65978 18.3333 6.41667V2.002C18.8677 2.19091 19.3306 2.5403 19.6588 3.00236C19.9869 3.46442 20.1643 4.01659 20.1667 4.58333V9.16667H1.83333V4.58333ZM15.5833 13.75H12.8333C12.5902 13.75 12.3571 13.8466 12.1852 14.0185C12.0132 14.1904 11.9167 14.4236 11.9167 14.6667V19.25C11.9167 19.4931 11.8201 19.7263 11.6482 19.8982C11.4763 20.0701 11.2431 20.1667 11 20.1667C10.7569 20.1667 10.5237 20.0701 10.3518 19.8982C10.1799 19.7263 10.0833 19.4931 10.0833 19.25V14.6667C10.0833 14.4236 9.98676 14.1904 9.81485 14.0185C9.64294 13.8466 9.40978 13.75 9.16667 13.75H6.41667C5.52588 13.7488 4.65474 13.4881 3.90978 12.9997C3.16481 12.5113 2.57831 11.8164 2.222 11H19.778C19.4217 11.8164 18.8352 12.5113 18.0902 12.9997C17.3453 13.4881 16.4741 13.7488 15.5833 13.75Z"/>
</svg>
