<svg xmlns="http://www.w3.org/2000/svg" viewBox="0 0 20 20" >
<path d="M15.8333 20.0037H4.16667C1.86917 20.0037 0 18.1346 0 15.8371V8.10708C0 6.71958 0.686667 5.42792 1.83667 4.65292L7.66917 0.71625C9.085 -0.23875 10.915 -0.23875 12.3308 0.71625L18.1642 4.65292C19.3133 5.42792 20 6.71875 20 8.10708V15.8371C20 18.1346 18.1308 20.0037 15.8333 20.0037ZM10 1.66792C9.51333 1.66792 9.02667 1.81125 8.60167 2.09875L2.76833 6.03458C2.07833 6.49958 1.66667 7.27375 1.66667 8.10625V15.8363C1.66667 17.2146 2.78833 18.3363 4.16667 18.3363H15.8333C17.2117 18.3363 18.3333 17.2146 18.3333 15.8363V8.10708C18.3333 7.27458 17.9217 6.49958 17.2325 6.03542L11.3983 2.09875C10.9733 1.81125 10.4867 1.66792 10 1.66792Z"/>
</svg>
