<svg xmlns="http://www.w3.org/2000/svg" viewBox="0 0 32 32"><path d="M11.187 2.275H5a3.003 3.003 0 0 0-3 3v6.186a3.003 3.003 0 0 0 3 3h6.187a3.003 3.003 0 0 0 3-3V5.275a3.003 3.003 0 0 0-3-3zm1 9.186a1.001 1.001 0 0 1-1 1H5a1.001 1.001 0 0 1-1-1V5.275a1.001 1.001 0 0 1 1-1h6.187a1.001 1.001 0 0 1 1 1zM27 2.275h-6.187a3.003 3.003 0 0 0-3 3v6.186a3.003 3.003 0 0 0 3 3H27a3.003 3.003 0 0 0 3-3V5.275a3.003 3.003 0 0 0-3-3zm1 9.186a1.001 1.001 0 0 1-1 1h-6.187a1.001 1.001 0 0 1-1-1V5.275a1.001 1.001 0 0 1 1-1H27a1.001 1.001 0 0 1 1 1zM11.187 17.54H5a3.003 3.003 0 0 0-3 3v6.185a3.003 3.003 0 0 0 3 3h6.187a3.003 3.003 0 0 0 3-3V20.54a3.003 3.003 0 0 0-3-3zm1 9.185a1.001 1.001 0 0 1-1 1H5a1.001 1.001 0 0 1-1-1V20.54a1.001 1.001 0 0 1 1-1h6.187a1.001 1.001 0 0 1 1 1zM27 17.54h-6.187a3.003 3.003 0 0 0-3 3v6.185a3.003 3.003 0 0 0 3 3H27a3.003 3.003 0 0 0 3-3V20.54a3.003 3.003 0 0 0-3-3zm1 9.185a1.001 1.001 0 0 1-1 1h-6.187a1.001 1.001 0 0 1-1-1V20.54a1.001 1.001 0 0 1 1-1H27a1.001 1.001 0 0 1 1 1z"></path></svg>