<svg xmlns="http://www.w3.org/2000/svg" viewBox="0 0 20 18">
<path fill-rule="evenodd" clip-rule="evenodd" d="M6.375 2.68906L6.2852 2.24375C6.082 1.22812 6.7422 0.239844 7.7578 0.0367186C8.7734 -0.166406 9.7617 0.493749 9.9648 1.50937L10.0547 1.95468C10.3125 3.25156 11.0195 4.41562 12.0547 5.24375L12.3438 5.47422C12.8873 5.91238 13.2928 6.48556 13.5253 7.12629C13.5699 7.24906 13.6081 7.37431 13.6397 7.50156C13.7122 7.79369 13.75 8.09638 13.75 8.4039V12.7477C13.75 13.2152 13.6631 13.6714 13.5 14.0957C13.2257 14.8093 12.7361 15.4327 12.082 15.8687L10.5781 16.8727C9.9609 17.2828 9.2383 17.5016 8.4961 17.5016H4.6875C3.6523 17.5016 2.8125 16.6617 2.8125 15.6266C2.8125 15.4859 2.8281 15.3492 2.8555 15.2203C2.2008 15.0089 1.7039 14.4434 1.5881 13.7497C1.5713 13.6486 1.5625 13.5449 1.5625 13.4391C1.5625 13.0836 1.6602 12.7516 1.832 12.4664C1.3879 12.382 0.998601 12.1394 0.725201 11.7993C0.467201 11.4783 0.3125 11.0704 0.3125 10.6266C0.3125 10.5824 0.314001 10.5385 0.317101 10.4951C0.354301 9.95872 0.6178 9.48362 1.0117 9.16562C0.5538 8.92777 0.2069 8.5066 0.0671997 8.00032C0.0233997 7.84144 0 7.67417 0 7.50156C0 6.4664 0.8398 5.62656 1.875 5.62656H7.5C7.2172 5.14973 6.9769 4.64781 6.7827 4.12656C6.6093 3.66142 6.4726 3.18088 6.375 2.68906ZM15 7.50156C15 7.34898 15.0272 7.20287 15.077 7.0678C15.253 6.59081 15.7112 6.25156 16.25 6.25156H18.75C19.4414 6.25156 20 6.81015 20 7.50156V16.2516C20 16.943 19.4414 17.5016 18.75 17.5016H16.25C15.5586 17.5016 15 16.943 15 16.2516V7.50156ZM8.5835 2.24715L8.5839 2.24915C8.911 3.89209 9.8071 5.36658 11.1177 6.41505L11.1196 6.4166L11.4051 6.64425C11.9406 7.07734 12.25 7.72294 12.25 8.4039V12.7477C12.25 13.5019 11.8741 14.2046 11.25 14.6207L9.7479 15.6234L9.7469 15.624C9.3756 15.8705 8.942 16.0016 8.4961 16.0016H4.6875C4.4808 16.0016 4.3125 15.8333 4.3125 15.6266C4.3125 15.5965 4.3159 15.5641 4.3228 15.5316L4.6035 14.2085L3.3164 13.7929C3.1705 13.7458 3.0625 13.6044 3.0625 13.4391C3.0625 13.3629 3.0823 13.2978 3.1167 13.2407L4.2291 11.3951L2.1121 10.9928C1.9437 10.9608 1.8125 10.8072 1.8125 10.6266C1.8125 10.5102 1.865 10.4046 1.954 10.3327L3.7387 8.89189L1.7032 7.83451C1.5791 7.77005 1.5 7.64298 1.5 7.50156C1.5 7.29483 1.6683 7.12656 1.875 7.12656H10.1336L8.7902 4.8614C8.341 4.10405 8.0199 3.27167 7.8463 2.39701L7.8454 2.3924L7.756 1.94957C7.7161 1.7481 7.8474 1.54851 8.052 1.50759C8.2537 1.46724 8.453 1.5987 8.494 1.80355L8.4945 1.80603L8.5835 2.24715ZM18.5 7.75156V16.0016H16.5V7.75156H18.5Z"/>
</svg>
