<svg viewBox="0 0 20 18" xmlns="http://www.w3.org/2000/svg">
<path fill-rule="evenodd" clip-rule="evenodd" d="M13.625 2.68916L13.7148 2.24385C13.918 1.22822 13.2578 0.239942 12.2422 0.0368166C11.2266 -0.166308 10.2383 0.493847 10.0352 1.50947L9.94531 1.95478C9.6875 3.25166 8.98047 4.41572 7.94531 5.24385L7.65625 5.47432C7.11274 5.91248 6.70718 6.48566 6.47466 7.12639C6.43011 7.24916 6.39191 7.37441 6.36031 7.50166C6.28776 7.79379 6.25 8.09648 6.25 8.404V12.7478C6.25 13.2153 6.33691 13.6715 6.5 14.0958C6.77426 14.8094 7.26393 15.4328 7.91797 15.8688L9.42188 16.8728C10.0391 17.2829 10.7617 17.5017 11.5039 17.5017H15.3125C16.3477 17.5017 17.1875 16.6618 17.1875 15.6267C17.1875 15.486 17.1719 15.3493 17.1445 15.2204C17.7992 15.009 18.2961 14.4435 18.4119 13.7498C18.4287 13.6487 18.4375 13.545 18.4375 13.4392C18.4375 13.0837 18.3398 12.7517 18.168 12.4665C18.6121 12.3821 19.0014 12.1395 19.2748 11.7994C19.5328 11.4784 19.6875 11.0705 19.6875 10.6267C19.6875 10.5825 19.686 10.5386 19.6829 10.4952C19.6457 9.95882 19.3822 9.48372 18.9883 9.16572C19.4462 8.92787 19.7931 8.5067 19.9328 8.00042C19.9766 7.84154 20 7.67427 20 7.50166C20 6.4665 19.1602 5.62666 18.125 5.62666H12.5C12.7828 5.14983 13.0231 4.64791 13.2173 4.12666C13.3907 3.66152 13.5274 3.18098 13.625 2.68916ZM5 7.50166C5 7.34908 4.9728 7.20297 4.92296 7.0679C4.74699 6.59091 4.28883 6.25166 3.75 6.25166H1.25C0.558594 6.25166 0 6.81025 0 7.50166V16.2517C0 16.9431 0.558594 17.5017 1.25 17.5017H3.75C4.44141 17.5017 5 16.9431 5 16.2517V7.50166ZM11.4165 2.24725L11.4161 2.24925C11.089 3.89219 10.1929 5.36668 8.88235 6.41515L8.88042 6.4167L8.59489 6.64435C8.05937 7.07744 7.75 7.72304 7.75 8.404V12.7478C7.75 13.502 8.12591 14.2047 8.75002 14.6208L10.2521 15.6235L10.2531 15.6241C10.6244 15.8706 11.058 16.0017 11.5039 16.0017H15.3125C15.5192 16.0017 15.6875 15.8334 15.6875 15.6267C15.6875 15.5966 15.6841 15.5642 15.6772 15.5317L15.3965 14.2086L16.6836 13.793C16.8295 13.7459 16.9375 13.6045 16.9375 13.4392C16.9375 13.363 16.9177 13.2979 16.8833 13.2408L15.7709 11.3952L17.8879 10.9929C18.0563 10.9609 18.1875 10.8073 18.1875 10.6267C18.1875 10.5103 18.135 10.4047 18.046 10.3328L16.2613 8.89199L18.2968 7.83461C18.4209 7.77015 18.5 7.64308 18.5 7.50166C18.5 7.29493 18.3317 7.12666 18.125 7.12666H9.86643L11.2098 4.8615C11.659 4.10415 11.9801 3.27177 12.1537 2.39711L12.1546 2.3925L12.244 1.94967C12.2839 1.7482 12.1526 1.54861 11.948 1.50769C11.7463 1.46734 11.547 1.5988 11.506 1.80365L11.5055 1.80613L11.4165 2.24725ZM1.5 7.75166V16.0017H3.5V7.75166H1.5Z"/>
</svg>
