<svg xmlns="http://www.w3.org/2000/svg" viewBox="0 0 35 28">
<path d="M11.5844 6.29281H32.5833C33.1594 6.29281 33.7119 6.06394 34.1193 5.65655C34.5267 5.24917 34.7556 4.69664 34.7556 4.12051C34.7556 3.54438 34.5267 2.99185 34.1193 2.58446C33.7119 2.17708 33.1594 1.94821 32.5833 1.94821H11.5844C11.0083 1.94821 10.4557 2.17708 10.0484 2.58446C9.64098 2.99185 9.41211 3.54438 9.41211 4.12051C9.41211 4.69664 9.64098 5.24917 10.0484 5.65655C10.4557 6.06394 11.0083 6.29281 11.5844 6.29281Z"/>
<path d="M32.5833 12.0856H11.5844C11.0083 12.0856 10.4557 12.3144 10.0484 12.7218C9.64098 13.1292 9.41211 13.6817 9.41211 14.2579C9.41211 14.834 9.64098 15.3865 10.0484 15.7939C10.4557 16.2013 11.0083 16.4302 11.5844 16.4302H32.5833C33.1594 16.4302 33.7119 16.2013 34.1193 15.7939C34.5267 15.3865 34.7556 14.834 34.7556 14.2579C34.7556 13.6817 34.5267 13.1292 34.1193 12.7218C33.7119 12.3144 33.1594 12.0856 32.5833 12.0856Z"/>
<path d="M32.5833 22.223H11.5844C11.0083 22.223 10.4557 22.4518 10.0484 22.8592C9.64098 23.2666 9.41211 23.8191 9.41211 24.3953C9.41211 24.9714 9.64098 25.5239 10.0484 25.9313C10.4557 26.3387 11.0083 26.5676 11.5844 26.5676H32.5833C33.1594 26.5676 33.7119 26.3387 34.1193 25.9313C34.5267 25.5239 34.7556 24.9714 34.7556 24.3953C34.7556 23.8191 34.5267 23.2666 34.1193 22.8592C33.7119 22.4518 33.1594 22.223 32.5833 22.223Z"/>
<path d="M3.6205 7.74099C5.62004 7.74099 7.24099 6.12004 7.24099 4.1205C7.24099 2.12095 5.62004 0.5 3.6205 0.5C1.62095 0.5 0 2.12095 0 4.1205C0 6.12004 1.62095 7.74099 3.6205 7.74099Z"/>
<path d="M3.6205 17.1543C5.62004 17.1543 7.24099 15.5333 7.24099 13.5338C7.24099 11.5342 5.62004 9.91327 3.6205 9.91327C1.62095 9.91327 0 11.5342 0 13.5338C0 15.5333 1.62095 17.1543 3.6205 17.1543Z"/>
<path d="M3.6205 27.2917C5.62004 27.2917 7.24099 25.6708 7.24099 23.6712C7.24099 21.6717 5.62004 20.0507 3.6205 20.0507C1.62095 20.0507 0 21.6717 0 23.6712C0 25.6708 1.62095 27.2917 3.6205 27.2917Z"/>
</svg>
