<svg xmlns="http://www.w3.org/2000/svg" viewBox="0 0 24 13">
<path d="M0.878046 8.41578L4.74805 12.3258C4.84101 12.4195 4.95161 12.4939 5.07347 12.5447C5.19533 12.5954 5.32603 12.6216 5.45805 12.6216C5.59006 12.6216 5.72076 12.5954 5.84262 12.5447C5.96448 12.4939 6.07508 12.4195 6.16805 12.3258C6.3543 12.1384 6.45884 11.885 6.45884 11.6208C6.45884 11.3566 6.3543 11.1031 6.16805 10.9158L2.60805 7.32578L22.998 7.32578C23.2633 7.32578 23.5176 7.22043 23.7052 7.03289C23.8927 6.84535 23.998 6.591 23.998 6.32578C23.998 6.06057 23.8927 5.80621 23.7052 5.61868C23.5176 5.43114 23.2633 5.32578 22.998 5.32578L2.54805 5.32578L6.16805 1.71578C6.26178 1.62282 6.33617 1.51222 6.38694 1.39036C6.43771 1.2685 6.46385 1.13779 6.46385 1.00578C6.46385 0.873769 6.43771 0.743063 6.38694 0.621204C6.33617 0.499345 6.26178 0.388743 6.16805 0.29578C6.07509 0.202052 5.96448 0.127657 5.84262 0.0768884C5.72077 0.0261205 5.59006 -1.78217e-05 5.45805 -1.78333e-05C5.32604 -1.78448e-05 5.19533 0.0261204 5.07347 0.0768883C4.95161 0.127657 4.84101 0.202051 4.74805 0.295779L0.878047 4.17578C0.316245 4.73828 0.000687268 5.50078 0.000687199 6.29578C0.000687129 7.09078 0.316245 7.85328 0.878046 8.41578Z"/>
</svg>
