<svg xmlns="http://www.w3.org/2000/svg" viewBox="0 0 196 196">
<path d="M1.85582 185.337L52.4598 135.541C39.2083 121.144 31.0661 102.103 31.0661 81.1507C31.0725 36.3295 67.9903 0 113.534 0C159.078 0 195.996 36.3295 195.996 81.1507C195.996 125.972 159.078 162.301 113.534 162.301C93.8561 162.301 75.8078 155.495 61.631 144.179L10.8307 194.171C8.35542 196.609 4.33685 196.609 1.86159 194.171C1.27283 193.596 0.804882 192.909 0.485213 192.151C0.165545 191.393 0.000596584 190.578 5.95898e-05 189.755C-0.000477405 188.932 0.163407 188.117 0.482086 187.359C0.800765 186.6 1.26782 185.912 1.85582 185.337ZM113.534 149.816C152.069 149.816 183.308 119.074 183.308 81.1507C183.308 43.2279 152.069 12.4855 113.534 12.4855C74.9988 12.4855 43.7604 43.2279 43.7604 81.1507C43.7604 119.074 74.9988 149.816 113.534 149.816Z"/>
</svg>
