<svg xmlns="http://www.w3.org/2000/svg" viewBox="0 0 15 18" >
<path d="M13.4625 4.155L10.845 1.5375C9.855 0.5475 8.535 0 7.1325 0H3.75C1.68 0 0 1.68 0 3.75V14.25C0 16.32 1.68 18 3.75 18H11.25C13.32 18 15 16.32 15 14.25V7.8675C15 6.465 14.4525 5.145 13.4625 4.155ZM12.405 5.2125C12.645 5.4525 12.8475 5.715 13.0125 6H9.7575C9.345 6 9.0075 5.6625 9.0075 5.25V1.995C9.2925 2.16 9.555 2.3625 9.795 2.6025L12.4125 5.22L12.405 5.2125ZM13.5 14.25C13.5 15.4875 12.4875 16.5 11.25 16.5H3.75C2.5125 16.5 1.5 15.4875 1.5 14.25V3.75C1.5 2.5125 2.5125 1.5 3.75 1.5H7.1325C7.2525 1.5 7.38 1.5 7.5 1.515V5.25C7.5 6.4875 8.5125 7.5 9.75 7.5H13.485C13.5 7.62 13.5 7.74 13.5 7.8675V14.25ZM3.8175 9.75H3C2.5875 9.75 2.25 10.0875 2.25 10.5V13.83C2.25 14.0925 2.46 14.295 2.715 14.295C2.97 14.295 3.18 14.085 3.18 13.83V12.915H3.81C4.695 12.915 5.415 12.2025 5.415 11.3325C5.415 10.4625 4.695 9.75 3.81 9.75H3.8175ZM3.8175 11.9775H3.195V10.6875H3.825C4.185 10.6875 4.4925 10.98 4.4925 11.3325C4.4925 11.685 4.185 11.9775 3.825 11.9775H3.8175ZM12.765 10.2225C12.765 10.485 12.555 10.6875 12.3 10.6875H11.0325V11.5425H11.9625C12.225 11.5425 12.4275 11.7525 12.4275 12.0075C12.4275 12.2625 12.2175 12.4725 11.9625 12.4725H11.0325V13.8225C11.0325 14.085 10.8225 14.2875 10.5675 14.2875C10.3125 14.2875 10.1025 14.0775 10.1025 13.8225V10.215C10.1025 9.9525 10.3125 9.75 10.5675 9.75H12.3C12.5625 9.75 12.765 9.96 12.765 10.215V10.2225ZM7.5675 9.7575H6.75C6.3375 9.7575 6 10.095 6 10.5075V13.8375C6 14.1 6.21 14.2575 6.465 14.2575C6.72 14.2575 7.56 14.2575 7.56 14.2575C8.445 14.2575 9.165 13.545 9.165 12.675V11.34C9.165 10.47 8.445 9.7575 7.56 9.7575H7.5675ZM8.235 12.675C8.235 13.0275 7.9275 13.32 7.5675 13.32H6.945V10.695H7.575C7.935 10.695 8.2425 10.9875 8.2425 11.34V12.675H8.235Z" />
</svg>
