<svg xmlns="http://www.w3.org/2000/svg" viewBox="0 0 36 36">
<path d="M0.373001 30.12L4.1365 21.8265C4.7635 20.445 6.043 19.536 7.558 19.392C9.0895 19.2465 10.5055 19.9065 11.3815 21.147L14.1445 25.062L26.2405 17.5905L24.592 12.9945C24.448 12.591 24.136 12.27 23.7385 12.1095C23.5645 12.0345 23.377 11.9985 23.1865 11.9985C22.9585 11.9985 22.7275 12.051 22.5145 12.1575L21.8095 12.423C20.779 12.936 19.993 13.8165 19.5985 14.901L17.959 19.671C17.686 20.4645 16.816 20.88 16.027 20.5935C15.2575 20.3145 14.854 19.4685 15.121 18.6945L16.7785 13.875C17.4355 12.0645 18.7465 10.5945 20.47 9.7365L21.175 9.471C22.3255 8.898 23.6665 8.844 24.859 9.324C26.0515 9.8025 26.983 10.7715 27.4165 11.9805L28.8505 15.9765L33.712 12.9735C34.417 12.5385 35.341 12.7545 35.776 13.461C36.211 14.166 35.9935 15.09 35.2885 15.525L15.8785 27.516L17.2345 29.4375C18.1345 30.7095 18.247 32.358 17.5315 33.7395C16.81 35.133 15.382 35.9985 13.8085 35.9985H4.192C2.758 35.9985 1.4395 35.28 0.665501 34.08C-0.102499 32.8875 -0.2105 31.407 0.3745 30.1185L0.373001 30.12ZM3.187 32.457C3.2905 32.6205 3.5995 33 4.1905 33H13.807C14.464 33 14.767 32.553 14.866 32.361C14.962 32.175 15.148 31.686 14.782 31.1685L8.929 22.875C8.626 22.446 8.2045 22.374 7.9555 22.374C7.912 22.374 7.8715 22.374 7.8415 22.3785C7.633 22.3995 7.123 22.5045 6.8695 23.0655L3.106 31.3605C2.8735 31.8735 3.085 32.298 3.1885 32.4555L3.187 32.457ZM22.4995 3.75C22.4995 1.6785 20.821 0 18.7495 0C16.678 0 14.9995 1.6785 14.9995 3.75C14.9995 5.8215 16.678 7.5 18.7495 7.5C20.821 7.5 22.4995 5.8215 22.4995 3.75ZM20.9995 28.5V34.5C20.9995 35.3295 21.67 36 22.4995 36C23.329 36 23.9995 35.3295 23.9995 34.5V28.5C23.9995 27.6705 23.329 27 22.4995 27C21.67 27 20.9995 27.6705 20.9995 28.5ZM28.711 24.3045L32.509 35.0025C32.728 35.616 33.3055 36 33.922 36C34.0885 36 34.258 35.9715 34.4245 35.913C35.206 35.6355 35.6125 34.7775 35.335 33.9975L31.537 23.2995C31.2595 22.518 30.4075 22.113 29.6215 22.389C28.84 22.6665 28.4335 23.5245 28.711 24.3045Z" />
</svg>
