<svg xmlns="http://www.w3.org/2000/svg" viewBox="0 0 68 48"><path d="M0 18C0 8.055 8.15089 0 18.2143 0H19.4286C22.1152 0 24.2857 2.145 24.2857 4.8C24.2857 7.455 22.1152 9.6 19.4286 9.6H18.2143C13.5241 9.6 9.71429 13.365 9.71429 18V19.2H19.4286C24.7866 19.2 29.1429 23.505 29.1429 28.8V38.4C29.1429 43.695 24.7866 48 19.4286 48H9.71429C4.35625 48 0 43.695 0 38.4V33.6V28.8V18ZM38.8571 18C38.8571 8.055 47.008 0 57.0714 0H58.2857C60.9723 0 63.1429 2.145 63.1429 4.8C63.1429 7.455 60.9723 9.6 58.2857 9.6H57.0714C52.3813 9.6 48.5714 13.365 48.5714 18V19.2H58.2857C63.6438 19.2 68 23.505 68 28.8V38.4C68 43.695 63.6438 48 58.2857 48H48.5714C43.2134 48 38.8571 43.695 38.8571 38.4V33.6V28.8V18Z"/></svg>