<svg xmlns="http://www.w3.org/2000/svg" viewBox="0 0 62 44"><path d="M62 16.5C62 7.38375 54.5683 0 45.3929 0H44.2857C41.8362 0 39.8571 1.96625 39.8571 4.4C39.8571 6.83375 41.8362 8.8 44.2857 8.8H45.3929C49.6692 8.8 53.1429 12.2513 53.1429 16.5V17.6H44.2857C39.4004 17.6 35.4286 21.5463 35.4286 26.4V35.2C35.4286 40.0538 39.4004 44 44.2857 44H53.1429C58.0281 44 62 40.0538 62 35.2V30.8V26.4V16.5ZM26.5714 16.5C26.5714 7.38375 19.1397 0 9.96429 0H8.85715C6.40759 0 4.42857 1.96625 4.42857 4.4C4.42857 6.83375 6.40759 8.8 8.85715 8.8H9.96429C14.2406 8.8 17.7143 12.2513 17.7143 16.5V17.6H8.85715C3.97188 17.6 2.86102e-06 21.5463 2.86102e-06 26.4V35.2C2.86102e-06 40.0538 3.97188 44 8.85715 44H17.7143C22.5996 44 26.5714 40.0538 26.5714 35.2V30.8V26.4V16.5Z"/></svg>