<svg xmlns="http://www.w3.org/2000/svg" viewBox="0 0 10 7"  >
<path d="M0.746856 0.5H9.13186C9.28019 0.500622 9.425 0.545213 9.54799 0.628135C9.67097 0.711057 9.76661 0.828587 9.82281 0.965861C9.879 1.10313 9.89323 1.25399 9.86369 1.39935C9.83415 1.54471 9.76217 1.67805 9.65686 1.7825L5.47186 5.9675C5.40213 6.0378 5.31918 6.09359 5.22779 6.13167C5.13639 6.16975 5.03836 6.18935 4.93936 6.18935C4.84035 6.18935 4.74232 6.16975 4.65092 6.13167C4.55953 6.09359 4.47658 6.0378 4.40686 5.9675L0.221856 1.7825C0.11654 1.67805 0.0445613 1.54471 0.0150224 1.39935C-0.0145165 1.25399 -0.0002896 1.10313 0.0559046 0.965861C0.112099 0.828587 0.207736 0.711057 0.330724 0.628135C0.453712 0.545213 0.598526 0.500622 0.746856 0.5Z"/>
</svg>
