<svg xmlns="http://www.w3.org/2000/svg" viewBox="0 0 22 22" >
<path d="M8.21945 22H3.66735C2.69471 22 1.7619 21.6137 1.07414 20.9261C0.38638 20.2384 0 19.3058 0 18.3333V13.75C0 12.7775 0.38638 11.8449 1.07414 11.1573C1.7619 10.4696 2.69471 10.0833 3.66735 10.0833H11.7878C12.284 10.0836 12.7717 10.2119 13.2038 10.4558C13.6358 10.6997 13.9976 11.0511 14.2541 11.4757L17.2035 8.23533C17.4475 7.96711 17.7419 7.74958 18.07 7.59519C18.3981 7.4408 18.7534 7.35257 19.1156 7.33554C19.4779 7.31851 19.8399 7.37303 20.181 7.49596C20.5222 7.6189 20.8357 7.80784 21.1038 8.052C21.6386 8.54327 21.9591 9.22487 21.9964 9.95007C22.0336 10.6753 21.7845 11.3861 21.3027 11.9295L15.0682 18.9301C14.2074 19.8953 13.1523 20.6678 11.972 21.1969C10.7917 21.7259 9.51292 21.9996 8.21945 22ZM3.66735 11.9167C3.18103 11.9167 2.71463 12.1098 2.37075 12.4536C2.02686 12.7975 1.83367 13.2638 1.83367 13.75V18.3333C1.83367 18.8196 2.02686 19.2859 2.37075 19.6297C2.71463 19.9735 3.18103 20.1667 3.66735 20.1667H8.21945C9.25357 20.1663 10.2759 19.9473 11.2195 19.5243C12.1631 19.1012 13.0066 18.4836 13.6948 17.7118L19.9339 10.7103C20.0959 10.5279 20.1797 10.2892 20.1674 10.0455C20.155 9.80191 20.0475 9.57287 19.8679 9.40775C19.6852 9.2436 19.4458 9.15711 19.2004 9.16667C19.0788 9.17181 18.9594 9.20113 18.8492 9.25291C18.739 9.30469 18.6402 9.37789 18.5586 9.46825L14.5007 13.9333C14.3225 14.4263 14.0139 14.8616 13.6076 15.1929C13.2013 15.5242 12.7127 15.739 12.1939 15.8143L7.46214 16.4908C7.22141 16.5254 6.97682 16.4629 6.78219 16.3171C6.58755 16.1713 6.45881 15.9542 6.42428 15.7135C6.38975 15.4728 6.45226 15.2283 6.59807 15.0337C6.74388 14.8391 6.96103 14.7104 7.20176 14.6758L11.9345 14.0002C12.1972 13.9635 12.4362 13.8285 12.6031 13.6224C12.7701 13.4163 12.8526 13.1545 12.834 12.89C12.8153 12.6254 12.697 12.3778 12.5028 12.1971C12.3086 12.0165 12.053 11.9162 11.7878 11.9167H3.66735ZM10.0852 8.31783C9.66966 8.31895 9.26623 8.17792 8.94191 7.91817C7.37229 6.65867 5.50102 4.76667 5.50102 2.93333C5.47851 2.18017 5.75525 1.44874 6.27069 0.899034C6.78614 0.349326 7.49835 0.0260812 8.25154 0C8.93673 0.00266826 9.59413 0.271166 10.0852 0.748917C10.5763 0.271166 11.2337 0.00266826 11.9189 0C12.6721 0.0260812 13.3843 0.349326 13.8997 0.899034C14.4152 1.44874 14.6919 2.18017 14.6694 2.93333C14.6694 4.76667 12.7981 6.65867 11.2276 7.91908C10.9034 8.17831 10.5003 8.319 10.0852 8.31783ZM8.25154 1.83333C7.98506 1.86007 7.73971 1.99028 7.56826 2.19599C7.39681 2.40169 7.31294 2.66645 7.3347 2.93333C7.3347 3.75833 8.38998 5.12417 10.0907 6.48908C11.7804 5.12417 12.8357 3.75833 12.8357 2.93333C12.8575 2.66645 12.7736 2.40169 12.6022 2.19599C12.4307 1.99028 12.1854 1.86007 11.9189 1.83333C11.6524 1.86007 11.4071 1.99028 11.2356 2.19599C11.0642 2.40169 10.9803 2.66645 11.002 2.93333C11.002 3.17645 10.9055 3.40961 10.7335 3.58151C10.5616 3.75342 10.3284 3.85 10.0852 3.85C9.84205 3.85 9.60885 3.75342 9.43691 3.58151C9.26497 3.40961 9.16837 3.17645 9.16837 2.93333C9.19013 2.66645 9.10626 2.40169 8.93481 2.19599C8.76336 1.99028 8.51801 1.86007 8.25154 1.83333Z" />
</svg>
