<svg xmlns="http://www.w3.org/2000/svg" viewBox="0 0 22 22">
<path d="M13.7806 22H18.3326C19.3053 22 20.2381 21.6137 20.9259 20.9261C21.6136 20.2384 22 19.3058 22 18.3333V13.75C22 12.7775 21.6136 11.8449 20.9259 11.1573C20.2381 10.4696 19.3053 10.0833 18.3326 10.0833H10.2122C9.716 10.0836 9.2283 10.2119 8.7962 10.4558C8.3642 10.6997 8.0024 11.0511 7.7459 11.4757L4.7965 8.23533C4.5525 7.96711 4.2581 7.74958 3.93 7.59519C3.6019 7.4408 3.2466 7.35257 2.8844 7.33554C2.5221 7.31851 2.1601 7.37303 1.819 7.49596C1.4778 7.6189 1.1643 7.80784 0.8962 8.052C0.3614 8.54327 0.0408992 9.22487 0.00359917 9.95007C-0.0336008 10.6753 0.2155 11.3861 0.6973 11.9295L6.9318 18.9301C7.7926 19.8953 8.8477 20.6678 10.028 21.1969C11.2083 21.7259 12.4871 21.9996 13.7806 22ZM18.3326 11.9167C18.819 11.9167 19.2854 12.1098 19.6293 12.4536C19.9731 12.7975 20.1663 13.2638 20.1663 13.75V18.3333C20.1663 18.8196 19.9731 19.2859 19.6293 19.6297C19.2854 19.9735 18.819 20.1667 18.3326 20.1667H13.7806C12.7464 20.1663 11.7241 19.9473 10.7805 19.5243C9.8369 19.1012 8.9934 18.4836 8.3052 17.7118L2.0661 10.7103C1.9041 10.5279 1.8203 10.2892 1.8326 10.0455C1.845 9.80191 1.9525 9.57287 2.1321 9.40775C2.3148 9.2436 2.5542 9.15711 2.7996 9.16667C2.9212 9.17181 3.0406 9.20113 3.1508 9.25291C3.261 9.30469 3.3598 9.37789 3.4414 9.46825L7.4993 13.9333C7.6775 14.4263 7.9861 14.8616 8.3924 15.1929C8.7987 15.5242 9.2873 15.739 9.8061 15.8143L14.5379 16.4908C14.7786 16.5254 15.0232 16.4629 15.2178 16.3171C15.4125 16.1713 15.5412 15.9542 15.5757 15.7135C15.6102 15.4728 15.5477 15.2283 15.4019 15.0337C15.2561 14.8391 15.039 14.7104 14.7982 14.6758L10.0655 14.0002C9.8028 13.9635 9.5638 13.8285 9.3969 13.6224C9.2299 13.4163 9.1474 13.1545 9.166 12.89C9.1847 12.6254 9.303 12.3778 9.4972 12.1971C9.6914 12.0165 9.947 11.9162 10.2122 11.9167H18.3326ZM11.9148 8.31783C12.3303 8.31895 12.7338 8.17792 13.0581 7.91817C14.6277 6.65867 16.499 4.76667 16.499 2.93333C16.5215 2.18017 16.2448 1.44874 15.7293 0.899034C15.2139 0.349326 14.5016 0.0260812 13.7485 0C13.0633 0.00266826 12.4059 0.271166 11.9148 0.748917C11.4237 0.271166 10.7663 0.00266826 10.0811 0C9.3279 0.0260812 8.6157 0.349326 8.1003 0.899034C7.5848 1.44874 7.3081 2.18017 7.3306 2.93333C7.3306 4.76667 9.2019 6.65867 10.7724 7.91908C11.0966 8.17831 11.4997 8.319 11.9148 8.31783ZM13.7485 1.83333C14.0149 1.86007 14.2603 1.99028 14.4317 2.19599C14.6032 2.40169 14.6871 2.66645 14.6653 2.93333C14.6653 3.75833 13.61 5.12417 11.9093 6.48908C10.2196 5.12417 9.1643 3.75833 9.1643 2.93333C9.1425 2.66645 9.2264 2.40169 9.3978 2.19599C9.5693 1.99028 9.8146 1.86007 10.0811 1.83333C10.3476 1.86007 10.5929 1.99028 10.7644 2.19599C10.9358 2.40169 11.0197 2.66645 10.998 2.93333C10.998 3.17645 11.0945 3.40961 11.2665 3.58151C11.4384 3.75342 11.6716 3.85 11.9148 3.85C12.1579 3.85 12.3912 3.75342 12.5631 3.58151C12.735 3.40961 12.8316 3.17645 12.8316 2.93333C12.8099 2.66645 12.8937 2.40169 13.0652 2.19599C13.2366 1.99028 13.482 1.86007 13.7485 1.83333Z"/>
</svg>
